<?xml version="1.0" encoding="utf-8"?>
<!-- Generator: Adobe Illustrator 26.0.2, SVG Export Plug-In . SVG Version: 6.00 Build 0)  -->
<svg version="1.1" xmlns="http://www.w3.org/2000/svg" xmlns:xlink="http://www.w3.org/1999/xlink" x="0px" y="0px"
	 viewBox="0 0 750 500" style="enable-background:new 0 0 750 500;" xml:space="preserve">
<style type="text/css">
	.st0{opacity:0.5;fill:url(#SVGID_1_);}
	.st1{clip-path:url(#SVGID_00000125574008307861155410000010309871356733252758_);}
	.st2{opacity:0.5;fill:#FDFDFD;}
	.st3{opacity:0.5;fill:url(#SVGID_00000139264388172995505650000004206103141145553032_);}
	.st4{opacity:0.5;fill:url(#SVGID_00000009563889225789203530000001634089031748925569_);}
	.st5{opacity:0.5;fill:url(#SVGID_00000017518801048979150860000007053413357865036675_);}
	.st6{opacity:0.5;fill:url(#SVGID_00000047768106707277804860000002848900391664582578_);}
	.st7{opacity:0.5;fill:url(#SVGID_00000043455212949641847340000011129060195853801611_);}
	.st8{opacity:0.5;fill:url(#SVGID_00000145745888094961246570000008595274941833584035_);}
	.st9{opacity:0.5;fill:url(#SVGID_00000114757135118966270080000005584143995452624807_);}
	
		.st10{opacity:0.5;clip-path:url(#SVGID_00000125574008307861155410000010309871356733252758_);fill:url(#SVGID_00000011725609583046889870000003859210765026304150_);}
	
		.st11{opacity:0.5;clip-path:url(#SVGID_00000125574008307861155410000010309871356733252758_);fill:url(#SVGID_00000039129978639801062900000011379057139066630300_);}
	
		.st12{opacity:0.5;clip-path:url(#SVGID_00000125574008307861155410000010309871356733252758_);fill:url(#SVGID_00000178898266694133626340000007319402344766205613_);}
	.st13{opacity:0.5;fill:url(#SVGID_00000160185784253643495000000017029647679010532499_);}
	.st14{opacity:0.5;fill:url(#SVGID_00000128466555580489711180000003531282787849824937_);}
	.st15{opacity:0.5;fill:url(#SVGID_00000137829257078710737750000017321545832149375679_);}
	.st16{opacity:0.5;fill:url(#SVGID_00000137821730798388493330000009044140077503767974_);}
	.st17{opacity:0.5;fill:url(#SVGID_00000173841120442343976390000002592877383280803741_);}
	.st18{opacity:0.5;fill:url(#SVGID_00000093867220788808179590000006409850302754023581_);}
	.st19{opacity:0.5;fill:url(#SVGID_00000048476912872521703310000003844095603944884153_);}
	.st20{opacity:0.5;fill:url(#SVGID_00000003100172538106860640000011075071061803646081_);}
	.st21{opacity:0.5;fill:url(#SVGID_00000000936758562165925550000017668387619225889166_);}
	.st22{opacity:0.5;fill:url(#SVGID_00000108279016113643946150000000152294145022035628_);}
	.st23{opacity:0.5;fill:url(#SVGID_00000020365605216920342960000015213332674336624284_);}
	.st24{opacity:0.5;fill:url(#SVGID_00000077283892143587491630000014893781526861613493_);}
	.st25{opacity:0.5;fill:url(#SVGID_00000113347371217803580850000007926087876613453458_);}
	.st26{opacity:0.5;fill:url(#SVGID_00000152248687254259923500000014476780198507606174_);}
	.st27{opacity:0.5;fill:url(#SVGID_00000034091968034359299190000013245072723380489634_);}
	.st28{opacity:0.5;fill:url(#SVGID_00000046334433434491378330000010626140279251844006_);}
	.st29{opacity:0.5;fill:url(#SVGID_00000043452987402778880500000017014396996289691801_);}
	.st30{opacity:0.5;fill:url(#SVGID_00000057856593852117864440000012559306641004873102_);}
	.st31{opacity:0.5;fill:url(#SVGID_00000034777480980569628280000006792827130828824971_);}
	.st32{opacity:0.5;fill:url(#SVGID_00000175291962066100231520000010665783116334386334_);}
	.st33{opacity:0.5;fill:url(#SVGID_00000040541439489384238170000004573897241900938880_);}
	.st34{opacity:0.5;fill:url(#SVGID_00000033359048977448466300000016098769244568200876_);}
	.st35{opacity:0.5;fill:url(#SVGID_00000160185773866867656830000001835749094113028997_);}
	.st36{opacity:0.5;fill:url(#SVGID_00000079457895249690452160000015839588991436661172_);}
	.st37{opacity:0.5;fill:url(#SVGID_00000160902531811045447060000012360018618172701324_);}
	.st38{opacity:0.5;fill:url(#SVGID_00000069362028867766407340000010082742080718947762_);}
	.st39{opacity:0.5;fill:url(#SVGID_00000099659384963921208300000016520375061213216931_);}
	.st40{opacity:0.5;fill:url(#SVGID_00000029013944843598744850000005863243292964363176_);}
	.st41{opacity:0.5;fill:url(#SVGID_00000080198974376537038960000009557982158790689417_);}
	.st42{opacity:0.5;fill:url(#SVGID_00000091703241588800286610000011552510164266159282_);}
	.st43{opacity:0.5;fill:url(#SVGID_00000069365296971243750970000008550042900361922950_);}
	.st44{opacity:0.5;fill:url(#SVGID_00000091016740897990584820000004741965216788526487_);}
	.st45{opacity:0.5;fill:url(#SVGID_00000086680209758902275250000003273041501215377316_);}
	
		.st46{opacity:0.5;clip-path:url(#SVGID_00000125574008307861155410000010309871356733252758_);fill:url(#SVGID_00000048466328711629333210000014838839342740411776_);}
	
		.st47{opacity:0.5;clip-path:url(#SVGID_00000125574008307861155410000010309871356733252758_);fill:url(#SVGID_00000107587240667404870810000003121148049982223509_);}
	
		.st48{opacity:0.5;clip-path:url(#SVGID_00000125574008307861155410000010309871356733252758_);fill:url(#SVGID_00000138549286287791029710000008262017465513714838_);}
	
		.st49{opacity:0.5;clip-path:url(#SVGID_00000125574008307861155410000010309871356733252758_);fill:url(#SVGID_00000128449799359194763850000012402918916564480702_);}
	
		.st50{opacity:0.5;clip-path:url(#SVGID_00000125574008307861155410000010309871356733252758_);fill:url(#SVGID_00000095300646287196281180000007278941669542866863_);}
	.st51{opacity:0.5;fill:#992B3B;}
	.st52{opacity:0.5;fill:#BA3A47;}
	.st53{opacity:0.5;fill:#DDD3D4;}
	.st54{opacity:0.5;fill:#272747;}
	.st55{opacity:0.5;fill:#FFBA78;}
	.st56{opacity:0.5;fill:#FF4E53;}
	.st57{opacity:0.5;fill:#0D0D1E;}
	.st58{opacity:0.5;fill:#1C1C35;}
	.st59{opacity:0.5;fill:#3F3E56;}
	.st60{opacity:0.5;fill:url(#SVGID_00000049185088783787629970000000546639937550180761_);}
	.st61{opacity:0.5;fill:url(#SVGID_00000005244852555717112460000011706488412382625725_);}
	.st62{opacity:0.5;fill:url(#SVGID_00000107570582106149177370000003866740792548495245_);}
	.st63{opacity:0.5;fill:url(#SVGID_00000053504359229191783510000012672791457659283073_);}
	.st64{opacity:0.5;fill:url(#SVGID_00000011719765148933473260000008600182526730548880_);}
	.st65{opacity:0.5;fill:url(#SVGID_00000087397159105372227430000017518807352645968037_);}
	.st66{opacity:0.5;fill:url(#SVGID_00000120526636406539975470000000331643304972444083_);}
	.st67{opacity:0.5;fill:url(#SVGID_00000119095009386638789850000004047433996919672742_);}
	.st68{opacity:0.5;fill:url(#SVGID_00000028299405707177401700000015844540690399362466_);}
	.st69{opacity:0.5;fill:url(#SVGID_00000054955630951374752270000003493525143609132424_);}
	.st70{opacity:0.6;fill:#D35E67;}
	.st71{opacity:0.5;fill:#323654;}
	.st72{opacity:0.5;fill:url(#SVGID_00000140726076785381626230000007812451398493031309_);}
	.st73{opacity:0.5;fill:url(#SVGID_00000151506655252707595430000003694613097701885091_);}
	.st74{opacity:0.5;fill:#252577;}
	.st75{opacity:0.5;fill:url(#SVGID_00000044136196053226572690000012271914171343833992_);}
	.st76{opacity:0.5;fill:url(#SVGID_00000014612330961940208060000003361401965044640658_);}
	.st77{opacity:0.5;fill:url(#SVGID_00000070820122081638001280000000905554584098032822_);}
	.st78{opacity:0.5;fill:url(#SVGID_00000071546614065188791430000011619064201086622851_);}
	.st79{opacity:0.5;fill:url(#SVGID_00000097501754839494665850000016569649404739655827_);}
	.st80{opacity:0.5;fill:#454A68;}
	.st81{opacity:0.5;fill:url(#SVGID_00000089547837349359037870000013018557921349350056_);}
	.st82{opacity:0.5;fill:url(#SVGID_00000150804137418497935510000014903982152724530836_);}
</style>
<g id="BACKGROUND">
	<linearGradient id="SVGID_1_" gradientUnits="userSpaceOnUse" x1="375" y1="500" x2="375" y2="0">
		<stop  offset="0" style="stop-color:#FFFFEB"/>
		<stop  offset="0.6347" style="stop-color:#FAE6E7"/>
		<stop  offset="1" style="stop-color:#74B8ED"/>
	</linearGradient>
	<rect class="st0" width="750" height="500"/>
</g>
<g id="OBJECTS">
	<g>
		<defs>
			<rect id="SVGID_00000075850802716971024060000017517063649445724550_" width="750" height="500"/>
		</defs>
		<clipPath id="SVGID_00000091698835162423771290000012030823504988770476_">
			<use xlink:href="#SVGID_00000075850802716971024060000017517063649445724550_"  style="overflow:visible;opacity:0.5;"/>
		</clipPath>
		<g style="clip-path:url(#SVGID_00000091698835162423771290000012030823504988770476_);">
			<path class="st2" d="M726.16,199.79c-12.15-5.66-25.55-4.06-37.26,2.98c-13.1,7.88-18.06,23.42-28.7,34.58
				c-20.31,21.3-39.43-23.64-60.23-3.71c-13.5,12.94-20.57,39.44-37.41,45.18c-15.53,5.29-23.99-14.06-37.49-15.9
				c-11.69-1.6-25.72,14.45-31.95,27.31c-1,2.07-1.95,4.27-3.09,6.17v140.16H750V209.61C741.84,209.85,734.07,203.48,726.16,199.79z
				"/>
			<path class="st2" d="M356.49,436.57v-94.2c-2.31-8.05-11.04-0.4-15.63,0.24c-9.08,1.28-14.42-3.71-16.27-15.49
				c-1.6-10.21-0.81-22.11-4.97-30.32c-5.11-10.08-16.16-11.6-26.46-10.76c-10.31,0.85-21.24,3.35-30.09-1.03
				c-11.14-5.51-16.8-20.92-27.55-27.3c-9.95-5.9-23.15-3.21-35.12,3.63c-10.71,6.11-21.81,21.36-32.14,25.78
				c-10.31,4.41-17.08-5.91-23.14-12.86c-8-9.18-18.51-14.7-30.02-16.02c-12.66-1.45-24.24,2.29-33.54-9.24
				c-11.26-13.96-10.54-44.07-26.49-48.97c-9.8-3.01-21.91,5.54-32.1,3.83C13.17,202.2,7.27,191.64,0,184.27v252.3H356.49z"/>
		</g>
		<g style="clip-path:url(#SVGID_00000091698835162423771290000012030823504988770476_);">
			
				<linearGradient id="SVGID_00000039109712677593828030000007013083746383033498_" gradientUnits="userSpaceOnUse" x1="213.2348" y1="73.1614" x2="213.2348" y2="54.2028" gradientTransform="matrix(-1 0 0 1 833.9113 0)">
				<stop  offset="0" style="stop-color:#FDFDFD;stop-opacity:0.2368"/>
				<stop  offset="0.7703" style="stop-color:#FDFDFD"/>
			</linearGradient>
			<path style="opacity:0.5;fill:url(#SVGID_00000039109712677593828030000007013083746383033498_);" d="M688.71,72.87
				c-4.17-2.09-6.69-7.71-10.1-10.84c-5.26-4.85-13.16-7.32-20.92-7.03c-8.58,0.34-13.48,5.08-20.37,7.52
				c-12.3,4.73-19.37-13.16-32.29-7.01c-7.88,4-11.65,13.03-20.03,14.85c-7.63,1.76-12.83-4.59-20.21-4.62
				c-4.84-0.01-9.44,3.33-12.16,7.13C552.64,72.87,688.18,73.53,688.71,72.87z"/>
			
				<linearGradient id="SVGID_00000129917848917239291600000003224727612591547050_" gradientUnits="userSpaceOnUse" x1="-1716.3129" y1="123.4555" x2="-1716.3129" y2="108.568" gradientTransform="matrix(1 0 0 1 1948.2601 0)">
				<stop  offset="0" style="stop-color:#FDFDFD;stop-opacity:0.2368"/>
				<stop  offset="0.7703" style="stop-color:#FDFDFD"/>
			</linearGradient>
			<path style="opacity:0.5;fill:url(#SVGID_00000129917848917239291600000003224727612591547050_);" d="M178.52,123.23
				c3.27-1.64,5.25-6.05,7.93-8.51c4.13-3.81,10.33-5.75,16.43-5.52c6.74,0.27,10.58,3.99,15.99,5.9
				c9.66,3.72,15.21-10.34,25.35-5.5c6.19,3.14,9.15,10.23,15.73,11.66c5.99,1.38,10.07-3.61,15.87-3.63
				c3.8-0.01,7.41,2.61,9.55,5.6C285.37,123.23,178.94,123.74,178.52,123.23z"/>
			<g>
				
					<linearGradient id="SVGID_00000061441630149318288370000003416952651255070395_" gradientUnits="userSpaceOnUse" x1="277.6646" y1="110.7811" x2="277.6646" y2="74.5965" gradientTransform="matrix(-1 0 0 1 833.9113 0)">
					<stop  offset="0" style="stop-color:#FDFDFD;stop-opacity:0.2368"/>
					<stop  offset="0.7703" style="stop-color:#FDFDFD"/>
				</linearGradient>
				<path style="opacity:0.5;fill:url(#SVGID_00000061441630149318288370000003416952651255070395_);" d="M440.54,97.87
					c2.41-0.41,4.86-0.37,7.2,0.3c3.06,0.87,5.72,2.74,8.66,3.95c6.46,2.65,12.61-1.11,16.68-6.17
					c10.11-12.54,17.13-26.08,35.84-19.74c7.92,2.68,15.22,7.46,23.51,8.54c19.44,2.53,38.92-15.72,57.11-8.41
					c13.8,5.55,19.7,23.68,33.88,28.2c9.01,2.87,18.65-0.68,27.62-3.69c9.99-3.36,17.6-3.8,27.55-0.74
					c5.98,1.84,12.13,7.56,18.29,10.68H415.61c1.36,0.08,15.18-9.18,18.93-10.97C436.44,98.91,438.47,98.22,440.54,97.87z"/>
			</g>
			<g>
				
					<linearGradient id="SVGID_00000136411922565941326530000017539478997924131465_" gradientUnits="userSpaceOnUse" x1="673.5334" y1="108.568" x2="673.5334" y2="80.1536" gradientTransform="matrix(-1 0 0 1 833.9113 0)">
					<stop  offset="0" style="stop-color:#FDFDFD;stop-opacity:0.2368"/>
					<stop  offset="0.7703" style="stop-color:#FDFDFD"/>
				</linearGradient>
				<path style="opacity:0.5;fill:url(#SVGID_00000136411922565941326530000017539478997924131465_);" d="M69.52,98.43
					c1.89-0.32,3.82-0.29,5.66,0.23c2.4,0.68,4.49,2.15,6.8,3.1c5.08,2.08,9.9-0.87,13.1-4.84c7.94-9.85,13.45-20.48,28.14-15.5
					c6.22,2.11,11.95,5.86,18.46,6.7c15.27,1.99,30.56-12.35,44.85-6.6c10.84,4.36,15.47,18.6,26.6,22.14
					c7.08,2.25,14.65-0.53,21.69-2.9c7.85-2.64,13.82-2.98,21.63-0.58c4.7,1.44,9.53,5.94,14.36,8.39c0,0-220.87,0-220.87,0
					c1.06,0.07,11.92-7.21,14.87-8.61C66.29,99.25,67.89,98.71,69.52,98.43z"/>
			</g>
			<g>
				
					<linearGradient id="SVGID_00000140711563503175123020000015516251144880633249_" gradientUnits="userSpaceOnUse" x1="637.0767" y1="229.8466" x2="637.0767" y2="193.6621" gradientTransform="matrix(-1 0 0 1 833.9113 0)">
					<stop  offset="0" style="stop-color:#FDFDFD;stop-opacity:0.2368"/>
					<stop  offset="0.7703" style="stop-color:#FDFDFD"/>
				</linearGradient>
				<path style="opacity:0.5;fill:url(#SVGID_00000140711563503175123020000015516251144880633249_);" d="M81.13,216.94
					c2.41-0.41,4.86-0.37,7.2,0.3c3.06,0.87,5.72,2.74,8.66,3.95c6.46,2.65,12.61-1.11,16.68-6.17
					c10.11-12.54,17.13-26.08,35.84-19.74c7.92,2.68,15.22,7.46,23.51,8.54c19.44,2.53,38.92-15.72,57.11-8.41
					c13.8,5.55,19.7,23.68,33.88,28.2c9.01,2.87,18.65-0.68,27.62-3.69c9.99-3.36,17.6-3.8,27.55-0.74
					c5.98,1.84,12.13,7.56,18.29,10.68c0,0-281.27,0-281.27,0c1.36,0.08,15.18-9.18,18.93-10.97
					C77.02,217.98,79.06,217.29,81.13,216.94z"/>
			</g>
			<g>
				
					<linearGradient id="SVGID_00000065793362934055620560000017441545194818283393_" gradientUnits="userSpaceOnUse" x1="-2038.3777" y1="202.6235" x2="-2038.3777" y2="181.511" gradientTransform="matrix(1 0 0 1 2323.75 0)">
					<stop  offset="0" style="stop-color:#FDFDFD;stop-opacity:0.2368"/>
					<stop  offset="0.7703" style="stop-color:#FDFDFD"/>
				</linearGradient>
				<path style="opacity:0.5;fill:url(#SVGID_00000065793362934055620560000017441545194818283393_);" d="M352.88,195.09
					c-1.4-0.24-2.84-0.22-4.2,0.17c-1.78,0.51-3.34,1.6-5.05,2.3c-3.77,1.55-7.35-0.65-9.73-3.6c-5.9-7.32-9.99-15.22-20.91-11.52
					c-4.62,1.57-8.88,4.35-13.72,4.98c-11.34,1.48-22.71-9.17-33.32-4.91c-8.05,3.24-11.5,13.82-19.77,16.45
					c-5.26,1.67-10.88-0.4-16.12-2.15c-5.83-1.96-10.27-2.22-16.07-0.43c-3.49,1.07-7.08,4.41-10.67,6.23h164.11
					c-0.79,0.05-8.85-5.35-11.05-6.4C355.28,195.7,354.09,195.3,352.88,195.09z"/>
			</g>
		</g>
		<g style="clip-path:url(#SVGID_00000091698835162423771290000012030823504988770476_);">
			
				<linearGradient id="SVGID_00000158716014124202507900000005746109416672883642_" gradientUnits="userSpaceOnUse" x1="375" y1="430.7529" x2="375" y2="244.2443">
				<stop  offset="0.3352" style="stop-color:#FFFFFF"/>
				<stop  offset="1" style="stop-color:#74B8ED"/>
			</linearGradient>
			<path style="opacity:0.5;fill:url(#SVGID_00000158716014124202507900000005746109416672883642_);" d="M671.93,344.31
				c-25.18-2.52-103.02-7.3-127.41-14.36v-0.05c-0.34-0.08-0.67-0.16-1-0.24c-53.85-15.73-105.4-42.64-153.11-81.16
				c-2.99-3.86-8.92-4.6-15.41-4.12c-6.48-0.48-12.42,0.27-15.41,4.12c-47.7,38.52-99.26,65.42-153.11,81.16
				c-0.33,0.08-0.67,0.16-1,0.24v0.05c-24.39,7.06-102.23,11.84-127.41,14.36v86.45h593.86V344.31z"/>
			<path class="st2" d="M337.04,272.1c8.87-12.08,17.32-10.27,12.36,6.06c15.55-1.43-2.5-7.96,27.6-15.32
				c3.13-7.04,17.15,10.97,26.48,15.79c5.95,1.57-9.71-10.34-1.17-9.81c10.68,0.96,15.51,13.74,15.75,1.07
				c-2.47-2.22-4.78-4.35-6.94-6.38c-6.98-5.04-13.89-10.3-20.71-15.82c-2.99-3.86-8.92-4.6-15.41-4.12
				c-6.48-0.48-12.42,0.27-15.41,4.12c-6.85,5.53-13.78,10.82-20.79,15.87c-1.89,1.79-3.87,3.66-5.97,5.61
				C339.29,263.69,330.03,277.96,337.04,272.1z"/>
		</g>
		
			<linearGradient id="SVGID_00000137094134729886672460000001164401942383976892_" gradientUnits="userSpaceOnUse" x1="375" y1="530.3224" x2="375" y2="289.9756" gradientTransform="matrix(-1 0 0 1 750 0)">
			<stop  offset="0.3305" style="stop-color:#FFFFFF"/>
			<stop  offset="1" style="stop-color:#64AADA"/>
		</linearGradient>
		
			<path style="opacity:0.5;clip-path:url(#SVGID_00000091698835162423771290000012030823504988770476_);fill:url(#SVGID_00000137094134729886672460000001164401942383976892_);" d="
			M0,500V291.28c2.46-0.49,4.64-0.88,7.2-1.09c13.69-1.14,28.82,2.3,39.64,10.47c12.2,9.21,20.85,17.83,37.56,17.49
			c7.26-0.15,14.51-1.98,21.72-1.05c10.36,1.34,17.63,8.35,26.8,12.56c14.98,6.86,32.44,9.34,48.48,4.98
			c18.21-4.95,29.79-20.31,49.47-19.8c12.1,0.32,22,6.91,34,7.95c11.57,1.01,22.48-3.25,33.6-5.62c15.62-3.32,32.83-2.38,47.88,1.75
			c16.83,4.62,23.21,13.73,36.88,20.27c23.72,11.35,48.17-9.27,72.56-4.7c7.19,1.35,14.32,3.56,21.63,3.33
			c14.51-0.47,19.57-14.44,31.86-19.63c9.8-4.14,22.67-2.84,33.74-0.48c11.07,2.36,22.17,5.67,33.77,5.12
			c14.61-0.7,27.22-7.43,41.75-8.64c13.45-1.12,26.97,2.72,37.43,8.42c9.35,5.1,15.4,14.89,25.03,19.06
			c9.62,4.17,21.36,0.21,30.92-2.17c12.17-3.03,25.22-3.88,38.08-2.61V500H0z"/>
		
			<linearGradient id="SVGID_00000170996372908195122610000002353306867591070366_" gradientUnits="userSpaceOnUse" x1="375" y1="499.7305" x2="375" y2="337.4826">
			<stop  offset="0.3305" style="stop-color:#FFFFFF"/>
			<stop  offset="1" style="stop-color:#64AADA"/>
		</linearGradient>
		
			<path style="opacity:0.5;clip-path:url(#SVGID_00000091698835162423771290000012030823504988770476_);fill:url(#SVGID_00000170996372908195122610000002353306867591070366_);" d="
			M750,479.26V338.62c-2.46-0.44-4.64-0.78-7.2-0.97c-13.45-0.99-26.97,2.41-37.43,7.46c-9.35,4.52-15.4,13.19-25.03,16.89
			c-9.62,3.69-21.35,0.19-30.92-1.92c-12.64-2.79-26.55-3.51-39.85-2.19c-14.63,1.45-25.92,5.05-40.96,1.43
			c-18.21-4.39-29.79-18-49.47-17.54c-12.1,0.28-22,6.12-34,7.05c-11.58,0.89-22.48-2.88-33.6-4.98
			c-15.62-2.94-32.83-2.11-47.88,1.55c-16.83,4.09-23.21,12.17-36.88,17.97c-23.72,10.06-48.17-8.22-72.56-4.16
			c-7.19,1.19-14.32,3.16-21.63,2.95c-14.51-0.42-19.57-12.8-31.86-17.39c-9.8-3.67-22.67-2.52-33.74-0.43
			c-11.07,2.09-22.17,5.03-33.77,4.53c-14.61-0.62-27.22-6.58-41.75-7.66c-13.45-0.99-26.97,2.41-37.43,7.46
			c-9.35,4.52-15.4,13.19-25.03,16.89c-9.62,3.69-21.35,0.19-30.92-1.92c-12.17-2.69-25.22-3.44-38.08-2.31v117.95H750z"/>
		
			<linearGradient id="SVGID_00000051367514540993333580000013315183360061006753_" gradientUnits="userSpaceOnUse" x1="375" y1="617.5582" x2="375" y2="372.6149" gradientTransform="matrix(-1 0 0 1 750 0)">
			<stop  offset="0" style="stop-color:#44408D"/>
			<stop  offset="1" style="stop-color:#1C7EB6"/>
		</linearGradient>
		
			<path style="opacity:0.5;clip-path:url(#SVGID_00000091698835162423771290000012030823504988770476_);fill:url(#SVGID_00000051367514540993333580000013315183360061006753_);" d="
			M751.29,382.41c-1.71-0.12-3.5-0.12-5.39,0.06c-9.23,0.85-17.64,5.99-26.9,6.13c-16.85,0.26-28.83-15.73-45.67-15.92
			c-9.88-0.11-18.78,5.31-26.24,11.05c-7.45,5.74-14.65,12.23-24.02,15.15c-16.35,5.1-30.85-9.44-47.83-9.48
			c-20-0.05-35.96,10.83-47.37,24.36c-8.5,11.42-14.18-1.11-21.81-6.13c-11.15-7.33-24.58-6.87-37.67-3.06
			c-10.83,3.15-18.29,11.73-30.85,10.86c-5.14-0.36-10.06-1.7-15.14-2.39c-14.7-2.02-29.6,1.4-44.39,2.99
			c-18.09,1.95-32.21-0.51-45.06-10.23c-11.82-8.94-22.67-18.91-41.07-18.51c-11.34,0.25-21.83,4.84-33.18,4.38
			c-20.67-0.85-34.79-17.67-55.43-18.97c-12.1-0.76-23.21,4.09-32.54,9.36c-9.33,5.26-18.38,11.3-29.97,13.61
			c-20.22,4.04-37.49-11.5-58.3-12.65c-24.52-1.36-44.45,8.5-58.91,21.31c-13.01,13.1-9.53-3.62-24.85-11.47V500h752.58V382.41z"/>
		<g style="clip-path:url(#SVGID_00000091698835162423771290000012030823504988770476_);">
			<g>
				
					<linearGradient id="SVGID_00000128462772654592459050000008907335417580294804_" gradientUnits="userSpaceOnUse" x1="289.2272" y1="465.7077" x2="289.2272" y2="422.4232">
					<stop  offset="0" style="stop-color:#1C7EB6"/>
					<stop  offset="1" style="stop-color:#44408D"/>
				</linearGradient>
				<polygon style="opacity:0.5;fill:url(#SVGID_00000128462772654592459050000008907335417580294804_);" points="289.23,422.42 
					268.01,465.71 310.45,465.71 				"/>
				
					<linearGradient id="SVGID_00000070080435939006344570000009783815347600538510_" gradientUnits="userSpaceOnUse" x1="173.1902" y1="438.3088" x2="173.1902" y2="379.2473">
					<stop  offset="0" style="stop-color:#1C7EB6"/>
					<stop  offset="1" style="stop-color:#44408D"/>
				</linearGradient>
				<polygon style="opacity:0.5;fill:url(#SVGID_00000070080435939006344570000009783815347600538510_);" points="173.19,379.25 
					151.97,438.31 194.41,438.31 				"/>
				
					<linearGradient id="SVGID_00000000923725936949903680000018205803660474421687_" gradientUnits="userSpaceOnUse" x1="371.1322" y1="465.7077" x2="371.1322" y2="418.4187">
					<stop  offset="0" style="stop-color:#1C7EB6"/>
					<stop  offset="1" style="stop-color:#44408D"/>
				</linearGradient>
				<polygon style="opacity:0.5;fill:url(#SVGID_00000000923725936949903680000018205803660474421687_);" points="371.13,418.42 
					349.91,465.71 392.35,465.71 				"/>
				
					<linearGradient id="SVGID_00000019658134859358584190000011442537335159816887_" gradientUnits="userSpaceOnUse" x1="260.0491" y1="465.7077" x2="260.0491" y2="415.8543">
					<stop  offset="0" style="stop-color:#1C7EB6"/>
					<stop  offset="1" style="stop-color:#44408D"/>
				</linearGradient>
				<polygon style="opacity:0.5;fill:url(#SVGID_00000019658134859358584190000011442537335159816887_);" points="268.9,415.85 
					238.83,465.71 281.27,465.71 				"/>
				
					<linearGradient id="SVGID_00000034805532262498122730000011988820970223581853_" gradientUnits="userSpaceOnUse" x1="386.0733" y1="465.7077" x2="386.0733" y2="423.0782">
					<stop  offset="0" style="stop-color:#1C7EB6"/>
					<stop  offset="1" style="stop-color:#44408D"/>
				</linearGradient>
				<polygon style="opacity:0.5;fill:url(#SVGID_00000034805532262498122730000011988820970223581853_);" points="382.28,423.08 
					364.85,465.71 407.29,465.71 				"/>
				
					<linearGradient id="SVGID_00000008869237558876422440000006560349218497175474_" gradientUnits="userSpaceOnUse" x1="320.1898" y1="465.7077" x2="320.1898" y2="428.0483">
					<stop  offset="0" style="stop-color:#1C7EB6"/>
					<stop  offset="1" style="stop-color:#44408D"/>
				</linearGradient>
				<polygon style="opacity:0.5;fill:url(#SVGID_00000008869237558876422440000006560349218497175474_);" points="320.19,428.05 
					298.97,465.71 341.41,465.71 				"/>
				
					<linearGradient id="SVGID_00000118361005847354754430000006482786837291086482_" gradientUnits="userSpaceOnUse" x1="163.3716" y1="465.7077" x2="163.3716" y2="354.8706">
					<stop  offset="0" style="stop-color:#1C7EB6"/>
					<stop  offset="1" style="stop-color:#44408D"/>
				</linearGradient>
				<polygon style="opacity:0.5;fill:url(#SVGID_00000118361005847354754430000006482786837291086482_);" points="163.37,354.87 
					142.15,465.71 184.59,465.71 				"/>
				
					<linearGradient id="SVGID_00000157275266956936048750000005612899250280245407_" gradientUnits="userSpaceOnUse" x1="142.1523" y1="465.7077" x2="142.1523" y2="397.1842">
					<stop  offset="0" style="stop-color:#1C7EB6"/>
					<stop  offset="1" style="stop-color:#44408D"/>
				</linearGradient>
				<polygon style="opacity:0.5;fill:url(#SVGID_00000157275266956936048750000005612899250280245407_);" points="142.15,397.18 
					120.93,465.71 163.37,465.71 				"/>
				
					<linearGradient id="SVGID_00000168092524285682361820000016748286446931309976_" gradientUnits="userSpaceOnUse" x1="119.6891" y1="465.7077" x2="119.6891" y2="408.9773">
					<stop  offset="0" style="stop-color:#1C7EB6"/>
					<stop  offset="1" style="stop-color:#44408D"/>
				</linearGradient>
				<polygon style="opacity:0.5;fill:url(#SVGID_00000168092524285682361820000016748286446931309976_);" points="119.69,408.98 
					98.47,465.71 140.91,465.71 				"/>
				
					<linearGradient id="SVGID_00000036219861783421262200000016806470559486572195_" gradientUnits="userSpaceOnUse" x1="348.2005" y1="465.7077" x2="348.2005" y2="410.9074">
					<stop  offset="0" style="stop-color:#1C7EB6"/>
					<stop  offset="1" style="stop-color:#44408D"/>
				</linearGradient>
				<polygon style="opacity:0.5;fill:url(#SVGID_00000036219861783421262200000016806470559486572195_);" points="348.2,410.91 
					326.98,465.71 369.42,465.71 				"/>
				
					<linearGradient id="SVGID_00000007422045450522108230000011532440196084654252_" gradientUnits="userSpaceOnUse" x1="413.5707" y1="465.7077" x2="413.5707" y2="405.5327">
					<stop  offset="0" style="stop-color:#1C7EB6"/>
					<stop  offset="1" style="stop-color:#44408D"/>
				</linearGradient>
				<polygon style="opacity:0.5;fill:url(#SVGID_00000007422045450522108230000011532440196084654252_);" points="417.36,405.53 
					392.35,465.71 434.79,465.71 				"/>
				
					<linearGradient id="SVGID_00000028314667867129451170000007814611411234467770_" gradientUnits="userSpaceOnUse" x1="439.3846" y1="465.7077" x2="439.3846" y2="415.8543">
					<stop  offset="0" style="stop-color:#1C7EB6"/>
					<stop  offset="1" style="stop-color:#44408D"/>
				</linearGradient>
				<polygon style="opacity:0.5;fill:url(#SVGID_00000028314667867129451170000007814611411234467770_);" points="439.38,415.85 
					418.17,465.71 460.6,465.71 				"/>
				
					<linearGradient id="SVGID_00000098212013750331036460000002252609668728416400_" gradientUnits="userSpaceOnUse" x1="250.0249" y1="465.7077" x2="250.0249" y2="411.102">
					<stop  offset="0" style="stop-color:#1C7EB6"/>
					<stop  offset="1" style="stop-color:#44408D"/>
				</linearGradient>
				<polygon style="opacity:0.5;fill:url(#SVGID_00000098212013750331036460000002252609668728416400_);" points="250.02,411.1 
					228.81,465.71 271.24,465.71 				"/>
				
					<linearGradient id="SVGID_00000072977310844602324700000014882064772710455225_" gradientUnits="userSpaceOnUse" x1="224.6527" y1="465.7077" x2="224.6527" y2="390.4491">
					<stop  offset="0" style="stop-color:#1C7EB6"/>
					<stop  offset="1" style="stop-color:#44408D"/>
				</linearGradient>
				<polygon style="opacity:0.5;fill:url(#SVGID_00000072977310844602324700000014882064772710455225_);" points="218.33,390.45 
					203.43,465.71 245.87,465.71 				"/>
				
					<linearGradient id="SVGID_00000060032620720100428330000015598863396302580397_" gradientUnits="userSpaceOnUse" x1="203.4334" y1="465.7077" x2="203.4334" y2="397.3503">
					<stop  offset="0" style="stop-color:#1C7EB6"/>
					<stop  offset="1" style="stop-color:#44408D"/>
				</linearGradient>
				<polygon style="opacity:0.5;fill:url(#SVGID_00000060032620720100428330000015598863396302580397_);" points="203.43,397.35 
					182.21,465.71 224.65,465.71 				"/>
				
					<linearGradient id="SVGID_00000049943058396912490040000005315919493253705635_" gradientUnits="userSpaceOnUse" x1="188.2253" y1="465.7077" x2="188.2253" y2="385.9102">
					<stop  offset="0" style="stop-color:#1C7EB6"/>
					<stop  offset="1" style="stop-color:#44408D"/>
				</linearGradient>
				<polygon style="opacity:0.5;fill:url(#SVGID_00000049943058396912490040000005315919493253705635_);" points="192.02,385.91 
					167.01,465.71 209.44,465.71 				"/>
			</g>
			<g>
				
					<linearGradient id="SVGID_00000061465143285611922900000018041854328566913953_" gradientUnits="userSpaceOnUse" x1="99.2174" y1="500" x2="99.2174" y2="438.2451" gradientTransform="matrix(-1 0 0 1 506.5604 0)">
					<stop  offset="0" style="stop-color:#1C7EB6"/>
					<stop  offset="1" style="stop-color:#44408D"/>
				</linearGradient>
				<polygon style="opacity:0.5;fill:url(#SVGID_00000061465143285611922900000018041854328566913953_);" points="407.34,438.25 
					428.56,500 386.12,500 				"/>
				
					<linearGradient id="SVGID_00000050647453932791557500000009107407884274923162_" gradientUnits="userSpaceOnUse" x1="289.2577" y1="463.8895" x2="289.2577" y2="421.4942" gradientTransform="matrix(-1 0 0 1 506.5604 0)">
					<stop  offset="0" style="stop-color:#1C7EB6"/>
					<stop  offset="1" style="stop-color:#44408D"/>
				</linearGradient>
				<polygon style="opacity:0.5;fill:url(#SVGID_00000050647453932791557500000009107407884274923162_);" points="217.3,421.49 
					238.52,463.89 196.08,463.89 				"/>
				
					<linearGradient id="SVGID_00000036949058054500844260000006455381893553510562_" gradientUnits="userSpaceOnUse" x1="157.0394" y1="500" x2="157.0394" y2="435.3706" gradientTransform="matrix(-1 0 0 1 506.5604 0)">
					<stop  offset="0" style="stop-color:#1C7EB6"/>
					<stop  offset="1" style="stop-color:#44408D"/>
				</linearGradient>
				<polygon style="opacity:0.5;fill:url(#SVGID_00000036949058054500844260000006455381893553510562_);" points="349.52,435.37 
					370.74,500 328.3,500 				"/>
				
					<linearGradient id="SVGID_00000119804566590639285840000016263211397646451093_" gradientUnits="userSpaceOnUse" x1="70.0393" y1="500" x2="70.0393" y2="433.5298" gradientTransform="matrix(-1 0 0 1 506.5604 0)">
					<stop  offset="0" style="stop-color:#1C7EB6"/>
					<stop  offset="1" style="stop-color:#44408D"/>
				</linearGradient>
				<polygon style="opacity:0.5;fill:url(#SVGID_00000119804566590639285840000016263211397646451093_);" points="427.67,433.53 
					457.74,500 415.3,500 				"/>
				
					<linearGradient id="SVGID_00000183965693997464536710000005582962719160159380_" gradientUnits="userSpaceOnUse" x1="171.9805" y1="500" x2="171.9805" y2="438.7153" gradientTransform="matrix(-1 0 0 1 506.5604 0)">
					<stop  offset="0" style="stop-color:#1C7EB6"/>
					<stop  offset="1" style="stop-color:#44408D"/>
				</linearGradient>
				<polygon style="opacity:0.5;fill:url(#SVGID_00000183965693997464536710000005582962719160159380_);" points="338.37,438.72 
					355.8,500 313.36,500 				"/>
				
					<linearGradient id="SVGID_00000181055957673619597520000015611336458814299801_" gradientUnits="userSpaceOnUse" x1="118.1385" y1="500" x2="118.1385" y2="442.2829" gradientTransform="matrix(-1 0 0 1 506.5604 0)">
					<stop  offset="0" style="stop-color:#1C7EB6"/>
					<stop  offset="1" style="stop-color:#44408D"/>
				</linearGradient>
				<polygon style="opacity:0.5;fill:url(#SVGID_00000181055957673619597520000015611336458814299801_);" points="388.42,442.28 
					409.64,500 367.2,500 				"/>
				
					<linearGradient id="SVGID_00000127729425742616378660000004509686376311052203_" gradientUnits="userSpaceOnUse" x1="279.4391" y1="500" x2="279.4391" y2="425.5321" gradientTransform="matrix(-1 0 0 1 506.5604 0)">
					<stop  offset="0" style="stop-color:#1C7EB6"/>
					<stop  offset="1" style="stop-color:#44408D"/>
				</linearGradient>
				<polygon style="opacity:0.5;fill:url(#SVGID_00000127729425742616378660000004509686376311052203_);" points="227.12,425.53 
					248.34,500 205.9,500 				"/>
				
					<linearGradient id="SVGID_00000003098991120169520990000004964815307335694477_" gradientUnits="userSpaceOnUse" x1="258.2198" y1="500" x2="258.2198" y2="434.3696" gradientTransform="matrix(-1 0 0 1 506.5604 0)">
					<stop  offset="0" style="stop-color:#1C7EB6"/>
					<stop  offset="1" style="stop-color:#44408D"/>
				</linearGradient>
				<polygon style="opacity:0.5;fill:url(#SVGID_00000003098991120169520990000004964815307335694477_);" points="248.34,434.37 
					269.56,500 227.12,500 				"/>
				
					<linearGradient id="SVGID_00000169526938506827662780000015449517490652377742_" gradientUnits="userSpaceOnUse" x1="235.7566" y1="500" x2="235.7566" y2="442.8349" gradientTransform="matrix(-1 0 0 1 506.5604 0)">
					<stop  offset="0" style="stop-color:#1C7EB6"/>
					<stop  offset="1" style="stop-color:#44408D"/>
				</linearGradient>
				<polygon style="opacity:0.5;fill:url(#SVGID_00000169526938506827662780000015449517490652377742_);" points="270.8,442.83 
					292.02,500 249.58,500 				"/>
				
					<linearGradient id="SVGID_00000086670210404930164930000012046049358521057961_" gradientUnits="userSpaceOnUse" x1="134.1077" y1="500" x2="134.1077" y2="429.9789" gradientTransform="matrix(-1 0 0 1 506.5604 0)">
					<stop  offset="0" style="stop-color:#1C7EB6"/>
					<stop  offset="1" style="stop-color:#44408D"/>
				</linearGradient>
				<polygon style="opacity:0.5;fill:url(#SVGID_00000086670210404930164930000012046049358521057961_);" points="372.45,429.98 
					393.67,500 351.23,500 				"/>
				
					<linearGradient id="SVGID_00000108295907099308185330000007142452090037945502_" gradientUnits="userSpaceOnUse" x1="199.4779" y1="500" x2="199.4779" y2="428.6797" gradientTransform="matrix(-1 0 0 1 506.5604 0)">
					<stop  offset="0" style="stop-color:#1C7EB6"/>
					<stop  offset="1" style="stop-color:#44408D"/>
				</linearGradient>
				<polygon style="opacity:0.5;fill:url(#SVGID_00000108295907099308185330000007142452090037945502_);" points="303.29,428.68 
					328.3,500 285.86,500 				"/>
				
					<linearGradient id="SVGID_00000130614206343812466310000006764777796146437787_" gradientUnits="userSpaceOnUse" x1="183.7306" y1="500" x2="183.7306" y2="441.3089" gradientTransform="matrix(-1 0 0 1 506.5604 0)">
					<stop  offset="0" style="stop-color:#1C7EB6"/>
					<stop  offset="1" style="stop-color:#44408D"/>
				</linearGradient>
				<polygon style="opacity:0.5;fill:url(#SVGID_00000130614206343812466310000006764777796146437787_);" points="319.04,441.31 
					344.05,500 301.61,500 				"/>
				
					<linearGradient id="SVGID_00000135666102773443108450000000336733239980075665_" gradientUnits="userSpaceOnUse" x1="225.2917" y1="500" x2="225.2917" y2="441.9625" gradientTransform="matrix(-1 0 0 1 506.5604 0)">
					<stop  offset="0" style="stop-color:#1C7EB6"/>
					<stop  offset="1" style="stop-color:#44408D"/>
				</linearGradient>
				<polygon style="opacity:0.5;fill:url(#SVGID_00000135666102773443108450000000336733239980075665_);" points="281.27,441.96 
					302.49,500 260.05,500 				"/>
				
					<linearGradient id="SVGID_00000006698241767874954680000012552044062859155897_" gradientUnits="userSpaceOnUse" x1="354.0508" y1="500" x2="354.0508" y2="423.2785" gradientTransform="matrix(-1 0 0 1 506.5604 0)">
					<stop  offset="0" style="stop-color:#1C7EB6"/>
					<stop  offset="1" style="stop-color:#44408D"/>
				</linearGradient>
				<polygon style="opacity:0.5;fill:url(#SVGID_00000006698241767874954680000012552044062859155897_);" points="152.51,423.28 
					173.73,500 131.29,500 				"/>
				
					<linearGradient id="SVGID_00000014608662642354318560000011039744543061332870_" gradientUnits="userSpaceOnUse" x1="340.7202" y1="500" x2="340.7202" y2="429.5351" gradientTransform="matrix(-1 0 0 1 506.5604 0)">
					<stop  offset="0" style="stop-color:#1C7EB6"/>
					<stop  offset="1" style="stop-color:#44408D"/>
				</linearGradient>
				<polygon style="opacity:0.5;fill:url(#SVGID_00000014608662642354318560000011039744543061332870_);" points="172.16,429.54 
					187.06,500 144.62,500 				"/>
				
					<linearGradient id="SVGID_00000143619170483532413880000001878661174726526361_" gradientUnits="userSpaceOnUse" x1="319.5009" y1="500" x2="319.5009" y2="434.4888" gradientTransform="matrix(-1 0 0 1 506.5604 0)">
					<stop  offset="0" style="stop-color:#1C7EB6"/>
					<stop  offset="1" style="stop-color:#44408D"/>
				</linearGradient>
				<polygon style="opacity:0.5;fill:url(#SVGID_00000143619170483532413880000001878661174726526361_);" points="187.06,434.49 
					208.28,500 165.84,500 				"/>
				
					<linearGradient id="SVGID_00000044153439850479176400000006432621997162226869_" gradientUnits="userSpaceOnUse" x1="304.2928" y1="500" x2="304.2928" y2="426.277" gradientTransform="matrix(-1 0 0 1 506.5604 0)">
					<stop  offset="0" style="stop-color:#1C7EB6"/>
					<stop  offset="1" style="stop-color:#44408D"/>
				</linearGradient>
				<polygon style="opacity:0.5;fill:url(#SVGID_00000044153439850479176400000006432621997162226869_);" points="198.47,426.28 
					223.49,500 181.05,500 				"/>
			</g>
		</g>
		
			<linearGradient id="SVGID_00000178194156165093903720000000254126179625115045_" gradientUnits="userSpaceOnUse" x1="164.3239" y1="580.3395" x2="13.6597" y2="433.3478" gradientTransform="matrix(0.6983 0.7158 -0.7158 0.6983 379.029 -22.8681)">
			<stop  offset="0" style="stop-color:#84BCEA"/>
			<stop  offset="1" style="stop-color:#1C92DA"/>
		</linearGradient>
		
			<path style="opacity:0.5;clip-path:url(#SVGID_00000091698835162423771290000012030823504988770476_);fill:url(#SVGID_00000178194156165093903720000000254126179625115045_);" d="
			M-83.68,500h323.87c0.49-2.98,0.29-5.65-1.06-8.19c-3.18-6.01-11.05-8.53-19.98-7.25c0.12-0.22,0.24-0.43,0.36-0.66
			c6.37-12.6,5.71-25.76-1.47-29.4c-7.18-3.63-18.17,3.64-24.54,16.25c-0.12,0.23-0.21,0.46-0.32,0.68
			c-1.25-3.48-3.52-6.25-6.71-7.68c-7.17-3.21-16.36,1.48-21.28,10.56c0.3-11.14-3.03-20.15-7.71-20.41
			c-3.65-0.2-7.08,4.96-8.86,12.51c-2.35-3.54-7.24-5.85-13.05-6.18c1.31-1.45,2.32-3.12,2.94-5.01c0.94-2.92,0.84-5.98-0.12-8.95
			c0.61,0.34,1.24,0.66,1.9,0.96c9.27,4.2,19.09,2.53,21.94-3.75c2.83-6.25-2.33-14.7-11.53-18.92c10.85-7.32,16.18-18.5,12-26.38
			c-3.09-5.83-10.59-8.36-19.2-7.33c2.53-3.09,3.77-6.75,3.17-10.43c-1.35-8.28-11.48-13.51-22.62-11.69
			c-0.79,0.13-1.57,0.3-2.33,0.49c2.17-7.98,0.15-15.56-5.25-17.98c-5.04-2.26-11.49,0.68-15.99,6.73
			c-0.49-1.89-1.33-3.66-2.57-5.21c-1.92-2.39-4.53-4-7.53-4.83c0.62-0.33,1.24-0.67,1.84-1.06c8.61-5.42,12.62-14.55,8.95-20.38
			c-3.66-5.81-13.55-6.15-22.14-0.79c-0.13-13.08-6.53-23.69-15.42-24.54c-6.57-0.63-12.81,4.24-16.69,11.99
			c-1.19-3.82-3.56-6.87-6.96-8.39c-7.65-3.43-17.6,2.15-22.21,12.45c-0.35,0.78-0.64,1.57-0.91,2.35
			c-4.81-6.27-11.68-9.19-16.79-6.61c-4.3,2.17-6.2,7.66-5.39,13.87c-5.3-2.98-10.66-3.3-12.71-0.5c-1.18,1.61-1.04,3.95,0.13,6.44
			c-3.53-1.97-8.27-2.95-13.37-2.48c5.75-11.75,4.79-24.1-2.77-28.85c-5.59-3.51-13.35-1.96-20.3,3.23
			c0.65-3.94-0.1-7.73-2.46-10.62c-5.31-6.5-16.69-5.97-25.43,1.16l-1.44,1.05V500z"/>
		
			<linearGradient id="SVGID_00000168819528220489695340000003015556847461023420_" gradientUnits="userSpaceOnUse" x1="293.257" y1="486.0256" x2="293.257" y2="368.5099" gradientTransform="matrix(-0.9894 -0.1449 -0.1449 0.9894 428.6285 78.9091)">
			<stop  offset="0.3352" style="stop-color:#FFFFFF"/>
			<stop  offset="1" style="stop-color:#74B8ED"/>
		</linearGradient>
		
			<path style="opacity:0.5;clip-path:url(#SVGID_00000091698835162423771290000012030823504988770476_);fill:url(#SVGID_00000168819528220489695340000003015556847461023420_);" d="
			M-50,500V397.15c1.54-1.55,3.18-2.56,5.23-2.85c4.86-0.69,9.67,2.84,12.7,8.6c0.08-0.16,0.15-0.33,0.23-0.49
			c4.66-9.06,12.63-14.25,17.79-11.6c5.17,2.66,5.57,12.16,0.91,21.22c-0.08,0.16-0.18,0.32-0.26,0.48
			c2.56-0.74,5.15-0.59,7.33,0.67c4.92,2.83,6.07,10.18,2.85,16.9c6.38-4.9,13.05-6.77,15.19-4.14c1.67,2.04,0.1,6.24-3.55,10.48
			c3.06-0.13,6.49,1.75,9.14,5c0.29-1.38,0.84-2.68,1.68-3.84c1.3-1.79,3.14-3.03,5.28-3.72c-0.46-0.22-0.91-0.45-1.36-0.7
			c-6.38-3.63-9.57-10.08-7.11-14.4c2.45-4.3,9.57-4.87,15.94-1.28c-0.32-9.44,3.95-17.29,10.32-18.19
			c4.71-0.67,9.37,2.64,12.42,8.11c0.73-2.79,2.34-5.06,4.75-6.27c5.41-2.72,12.75,0.98,16.41,8.26c0.26,0.52,0.49,1.04,0.7,1.57
			c3.74-4.65,9.03-6.68,12.73-4.55c3.46,1.99,4.47,7,2.84,12.19c1.31-0.52,2.7-0.78,4.13-0.71c2.21,0.11,4.25,0.95,6.01,2.35
			c-0.07-0.5-0.13-1.01-0.16-1.52c-0.48-7.33,3.15-13.54,8.11-13.86c4.94-0.32,9.33,5.31,9.85,12.6c7.7-5.47,16.61-6.22,20.87-1.4
			c3.15,3.57,2.95,9.28,0.07,14.83c2.73-0.92,5.52-0.83,7.85,0.51c5.24,3.02,6.2,11.19,2.14,18.24c-0.31,0.53-0.64,1.04-0.99,1.53
			c5.7,0.15,10.32,2.93,10.98,7c0.55,3.43-1.85,6.87-5.82,9.03c3.98,1.83,6.44,4.83,5.67,7.21c-0.44,1.37-1.87,2.28-3.82,2.65
			c2.65,1.23,5.23,3.58,7.11,6.76c4.43-8.34,12.05-13.01,18.03-10.61c4.42,1.78,6.8,6.97,6.71,13.22c2.03-2.05,4.56-3.22,7.24-3.06
			c6.04,0.35,10.56,7.22,10.1,15.35V500H-50z"/>
		
			<linearGradient id="SVGID_00000158742515020502056300000014522318216726892953_" gradientUnits="userSpaceOnUse" x1="424.5484" y1="542.284" x2="424.5484" y2="431.7093">
			<stop  offset="0" style="stop-color:#FDFDFD;stop-opacity:0.2368"/>
			<stop  offset="0.7703" style="stop-color:#FDFDFD"/>
		</linearGradient>
		
			<polygon style="opacity:0.5;clip-path:url(#SVGID_00000091698835162423771290000012030823504988770476_);fill:url(#SVGID_00000158742515020502056300000014522318216726892953_);" points="
			413.95,437.1 405.73,467.11 405.4,494.57 408.43,539.24 422.4,542.28 437.95,539.24 443.7,509.04 440.99,469.96 439.3,435.8 
			424.55,431.71 		"/>
		
			<linearGradient id="SVGID_00000053533509860929189130000002705633129396747143_" gradientUnits="userSpaceOnUse" x1="527.6475" y1="533.5375" x2="527.6475" y2="327.3569" gradientTransform="matrix(0.9894 -0.1449 0.1449 0.9894 -56.4961 78.9091)">
			<stop  offset="0" style="stop-color:#84BCEA"/>
			<stop  offset="1" style="stop-color:#1C92DA"/>
		</linearGradient>
		
			<path style="opacity:0.5;clip-path:url(#SVGID_00000091698835162423771290000012030823504988770476_);fill:url(#SVGID_00000053533509860929189130000002705633129396747143_);" d="
			M750,500V319.55c-2.69-2.72-5.58-4.5-9.18-5c-8.52-1.2-16.96,4.98-22.28,15.09c-0.14-0.29-0.26-0.57-0.41-0.86
			c-8.18-15.9-22.16-25.01-31.22-20.35c-9.06,4.66-9.78,21.33-1.6,37.23c0.15,0.29,0.31,0.56,0.46,0.84
			c-4.5-1.3-9.03-1.04-12.86,1.17c-8.62,4.96-10.64,17.86-4.99,29.66c-11.2-8.59-22.9-11.87-26.65-7.27
			c-2.92,3.59-0.18,10.94,6.23,18.38c-5.38-0.23-11.38,3.07-16.04,8.77c-0.51-2.42-1.47-4.71-2.96-6.74
			c-2.29-3.14-5.51-5.31-9.26-6.53c0.8-0.38,1.6-0.78,2.39-1.23c11.2-6.38,16.78-17.69,12.47-25.27c-4.3-7.55-16.79-8.54-27.96-2.25
			c0.57-16.56-6.93-30.33-18.11-31.91c-8.27-1.17-16.45,4.64-21.79,14.23c-1.29-4.89-4.11-8.88-8.33-11
			c-9.49-4.77-22.38,1.72-28.79,14.49c-0.46,0.91-0.86,1.83-1.23,2.75c-6.56-8.15-15.84-11.72-22.33-7.98
			c-6.06,3.49-7.84,12.28-4.99,21.39c-2.31-0.91-4.74-1.36-7.25-1.24c-3.88,0.18-7.46,1.67-10.55,4.13
			c0.13-0.88,0.23-1.77,0.29-2.68c0.85-12.86-5.52-23.75-14.23-24.32c-8.67-0.57-16.38,9.31-17.27,22.1
			c-13.51-9.59-29.13-10.92-36.61-2.45c-5.53,6.26-5.18,16.28-0.12,26.02c-4.79-1.62-9.68-1.46-13.77,0.9
			c-9.2,5.3-10.88,19.63-3.76,32.01c0.54,0.94,1.13,1.83,1.73,2.69c-10,0.27-18.1,5.13-19.26,12.29
			c-0.97,6.02,3.24,12.05,10.21,15.84c-6.99,3.22-11.3,8.47-9.96,12.65c0.78,2.41,3.28,4.01,6.7,4.65
			c-4.64,2.15-9.17,6.28-12.48,11.86c-7.77-14.63-21.14-22.83-31.63-18.61c-7.75,3.12-11.94,12.23-11.78,23.2
			c-3.56-3.6-8-5.65-12.71-5.38c-10.6,0.61-18.53,12.66-17.71,26.93V500H750z"/>
		
			<linearGradient id="SVGID_00000041990608693827019500000001316701542775458432_" gradientUnits="userSpaceOnUse" x1="476.748" y1="533.319" x2="548.3682" y2="451.505" gradientTransform="matrix(0.7524 -0.6587 0.6587 0.7524 -215.9272 427.7271)">
			<stop  offset="0.3352" style="stop-color:#FFFFFF"/>
			<stop  offset="1" style="stop-color:#74B8ED"/>
		</linearGradient>
		
			<path style="opacity:0.5;clip-path:url(#SVGID_00000091698835162423771290000012030823504988770476_);fill:url(#SVGID_00000041990608693827019500000001316701542775458432_);" d="
			M377.76,514.96h237.48V438.9c1.16-6.57-1.5-12.54-5.95-13.33c-3.82-0.68-7.71,2.7-9.47,7.83c-0.34-0.38-0.7-0.76-1.08-1.12
			c-5.37-5.09-12.8-5.97-16.58-1.98c-1.68,1.78-2.35,4.22-2.12,6.83c-2.34-2.03-4.89-3.36-7.34-3.83c0.86-1.4,1.11-2.78,0.55-3.87
			c-1.05-2.02-4.55-2.35-8.28-0.96c1.15-3.94,0.47-7.69-2.1-9.53c-3.27-2.34-8.48-0.8-12.33,3.4c0.45-6.24-2.02-11.5-6.06-12.27
			c-3.77-0.72-7.71,2.7-9.75,8.01c-0.3-5.57-2.71-10.06-6.76-11.43c-5.07-1.71-11.08,2.01-14.82,8.61
			c-4.42-5.22-10.61-7.32-14.63-4.64c-4.48,2.99-4.54,10.77-0.13,17.4c1.07,1.61,2.31,2.99,3.63,4.14c-1.47,0-2.9,0.3-4.21,0.98
			c-1.16,0.59-2.13,1.43-2.93,2.43c-1.07-4.83-4.14-8.31-7.76-8.32c-3.88,0-7.12,3.99-7.97,9.35c-0.4-0.32-0.82-0.63-1.26-0.92
			c-6.17-4.08-13.64-3.66-16.67,0.93c-1.35,2.04-1.59,4.56-0.9,7.09c-4.87-2.93-10.04-3.42-13.46-0.76
			c-4.62,3.6-4.42,11.72,0.11,19.01c-6.64,0.06-11.99,3.73-11.97,8.23c0.02,4.52,5.45,8.16,12.12,8.13c0.47,0,0.93-0.03,1.39-0.06
			c-1.37,1.52-2.25,3.32-2.47,5.32c-0.14,1.29,0.02,2.57,0.41,3.79c-3.56-1.36-7.11-1.29-9.47,0.2c0.96-4.99,0.29-9-1.95-9.86
			c-2.87-1.1-7.28,3.4-10.09,10.15c-0.51-6.75-4.75-12.02-9.9-12.03c-2.29,0-4.39,1.05-6.08,2.79c-0.01-0.17,0-0.33-0.01-0.5
			c-0.43-9.25-5.06-16.55-10.33-16.3c-5.27,0.25-9.2,7.95-8.77,17.2c0.01,0.17,0.03,0.33,0.04,0.49c-5-3.17-10.38-3.76-13.9-1.02
			c-5.13,4-4.34,13.57,1.75,21.39V514.96z M511.29,435.7c0.17,0.36,0.36,0.7,0.56,1.03c-0.34-0.35-0.7-0.68-1.06-0.99
			C510.96,435.74,511.12,435.72,511.29,435.7z"/>
		<g style="clip-path:url(#SVGID_00000091698835162423771290000012030823504988770476_);">
			<g>
				<path class="st51" d="M640.26,400.71l6.03-8.78l-22.81,2.23c-67.4-27.23-9.96,4.12-27.32-20.7H582.3c0,0-2.53,23.31,7.2,17.19
					C594.96,402.78,631,404.52,640.26,400.71z"/>
				<path class="st52" d="M589.51,390.65v-8.18l5.45,3.54c-6.37-3.12-11.41-11.3-12.51-12.56h-14.71
					c-17.45,11.72-31,16.98-43.24,19.1l-19.15-5.15l6.03,9.99C524.23,401.94,575.84,404.53,589.51,390.65z"/>
				<g>
					<rect x="579.91" y="380.93" class="st53" width="48.95" height="60.44"/>
					<rect x="519.22" y="380.93" class="st2" width="60.69" height="60.44"/>
				</g>
				<g>
					<rect x="544.41" y="413.53" class="st54" width="9.65" height="26.09"/>
					<rect x="541.44" y="413.53" class="st55" width="2.96" height="26.09"/>
					<rect x="554.06" y="413.53" class="st55" width="2.96" height="26.09"/>
				</g>
				
					<rect x="561" y="412.94" transform="matrix(-1.836970e-16 1 -1 -1.836970e-16 981.3924 -147.475)" class="st55" width="6.87" height="8.03"/>
				
					<rect x="530.76" y="412.94" transform="matrix(-1.836970e-16 1 -1 -1.836970e-16 951.1495 -117.2321)" class="st55" width="6.87" height="8.03"/>
				<g>
					<rect x="519.22" y="380.93" class="st52" width="8.51" height="60.44"/>
					<rect x="571.4" y="380.93" class="st52" width="8.51" height="60.44"/>
					<rect x="519.22" y="399.21" class="st52" width="60.95" height="4.41"/>
					
						<rect x="543.56" y="393.33" transform="matrix(-1.836970e-16 1 -1 -1.836970e-16 945.2357 -154.1559)" class="st52" width="12.27" height="4.41"/>
				</g>
				<g>
					<rect x="620.35" y="380.93" class="st51" width="8.51" height="60.44"/>
					<rect x="579.91" y="380.93" class="st51" width="8.51" height="60.44"/>
					<rect x="580.17" y="399.21" class="st51" width="48.69" height="4.41"/>
				</g>
				<g>
					<path class="st52" d="M651.52,394.21l7.09-10.33l-26.84,2.62c-79.3-32.04-11.72,4.85-32.14-24.36h-16.3
						c0,0-2.98,27.43,8.47,20.23C598.21,396.64,640.62,398.69,651.52,394.21z"/>
					<path class="st56" d="M591.8,382.37v-9.62l6.41,4.17c-7.5-3.67-13.42-13.29-14.72-14.78h-17.31
						c-20.53,13.79-36.47,19.97-50.88,22.47l-22.53-6.06l7.09,11.75C515,395.65,575.73,398.7,591.8,382.37z"/>
					<path class="st57" d="M663.03,384.57v-8.1l-29.01,2.84c-22.76-9.2-34.74-26.33-34.74-26.33h-17.62c0,0-2.07,27.18,10.31,19.4
						C596.66,390.87,651.4,391.77,663.03,384.57z"/>
					<path class="st58" d="M591.96,372.37v-8.1l5.78,4.68c-8.11-3.97-14.51-14.37-15.91-15.97h-18.71
						c-22.2,14.9-39.42,21.59-55,24.29l-24.35-6.55v8.1C500.56,390.27,577.19,393.89,591.96,372.37z"/>
					<path class="st58" d="M663.03,376.47c-26.54,4.65-67.3-31.6-67.3-31.6h-14.07c0,0-2.07,27.18,10.31,19.4
						C596.66,382.77,651.4,383.67,663.03,376.47z"/>
					<path class="st54" d="M591.96,364.27c-11.77,2.49-10.13-19.4-10.13-19.4h-18.71c-34.21,22.97-56.62,26.43-79.35,25.85
						C500.56,382.17,577.19,385.79,591.96,364.27z"/>
				</g>
				<g>
					
						<rect x="510.87" y="427.41" transform="matrix(-1 -1.224647e-16 1.224647e-16 -1 1090.7722 856.925)" class="st56" width="69.04" height="2.1"/>
					
						<rect x="510.87" y="433.61" transform="matrix(-1 -1.224647e-16 1.224647e-16 -1 1090.7722 869.3149)" class="st56" width="69.04" height="2.1"/>
					
						<rect x="510.87" y="439.28" transform="matrix(-1 -1.224647e-16 1.224647e-16 -1 1090.7722 880.6472)" class="st56" width="69.04" height="2.1"/>
					
						<rect x="555.23" y="428.46" transform="matrix(-1 -1.224647e-16 1.224647e-16 -1 1112.9561 869.8346)" class="st56" width="2.49" height="12.91"/>
					
						<rect x="577.42" y="428.46" transform="matrix(-1 -1.224647e-16 1.224647e-16 -1 1157.3239 869.8346)" class="st56" width="2.49" height="12.91"/>
					
						<rect x="533.05" y="428.46" transform="matrix(-1 -1.224647e-16 1.224647e-16 -1 1068.5885 869.8346)" class="st56" width="2.49" height="12.91"/>
					
						<rect x="510.87" y="428.46" transform="matrix(-1 -1.224647e-16 1.224647e-16 -1 1024.2207 869.8346)" class="st56" width="2.49" height="12.91"/>
				</g>
				<g>
					
						<rect x="579.91" y="427.41" transform="matrix(-1 -1.224647e-16 1.224647e-16 -1 1216.0919 856.925)" class="st52" width="56.28" height="2.1"/>
					
						<rect x="579.91" y="433.61" transform="matrix(-1 -1.224647e-16 1.224647e-16 -1 1216.0919 869.3149)" class="st52" width="56.28" height="2.1"/>
					
						<rect x="579.91" y="439.28" transform="matrix(-1 -1.224647e-16 1.224647e-16 -1 1216.0919 880.6472)" class="st52" width="56.28" height="2.1"/>
					
						<rect x="615.77" y="428.46" transform="matrix(-1 -1.224647e-16 1.224647e-16 -1 1234.021 869.8346)" class="st52" width="2.49" height="12.91"/>
					
						<rect x="633.69" y="428.46" transform="matrix(-1 -1.224647e-16 1.224647e-16 -1 1269.879 869.8346)" class="st52" width="2.49" height="12.91"/>
					
						<rect x="597.84" y="428.46" transform="matrix(-1 -1.224647e-16 1.224647e-16 -1 1198.1628 869.8346)" class="st52" width="2.49" height="12.91"/>
					
						<rect x="579.91" y="428.46" transform="matrix(-1 -1.224647e-16 1.224647e-16 -1 1162.3048 869.8346)" class="st52" width="2.49" height="12.91"/>
				</g>
			</g>
			<g>
				<path class="st51" d="M640.26,325.97l6.03-8.78l-22.81,2.23c-67.4-27.23-9.96,4.12-27.32-20.7H582.3c0,0-2.53,23.31,7.2,17.19
					C594.96,328.04,631,329.78,640.26,325.97z"/>
				<path class="st52" d="M589.51,315.91v-8.18l5.45,3.54c-6.37-3.12-11.41-11.3-12.51-12.56h-14.71
					c-17.45,11.72-31,16.98-43.24,19.1l-19.15-5.15l6.03,9.99C524.23,327.2,575.84,329.79,589.51,315.91z"/>
				<g>
					<rect x="579.91" y="306.19" class="st53" width="48.95" height="60.44"/>
					<rect x="519.22" y="306.19" class="st2" width="60.69" height="60.44"/>
				</g>
				<g>
					<rect x="544.41" y="338.79" class="st54" width="9.65" height="26.09"/>
					<rect x="541.44" y="338.79" class="st55" width="2.96" height="26.09"/>
					<rect x="554.06" y="338.79" class="st55" width="2.96" height="26.09"/>
				</g>
				
					<rect x="561" y="338.2" transform="matrix(-1.836970e-16 1 -1 -1.836970e-16 906.6518 -222.2156)" class="st55" width="6.87" height="8.03"/>
				
					<rect x="530.76" y="338.2" transform="matrix(-1.836970e-16 1 -1 -1.836970e-16 876.4089 -191.9727)" class="st55" width="6.87" height="8.03"/>
				<g>
					<rect x="519.22" y="306.19" class="st52" width="8.51" height="60.44"/>
					<rect x="571.4" y="306.19" class="st52" width="8.51" height="60.44"/>
					<rect x="519.22" y="324.47" class="st52" width="60.95" height="4.41"/>
					
						<rect x="543.56" y="318.59" transform="matrix(-1.836970e-16 1 -1 -1.836970e-16 870.4951 -228.8965)" class="st52" width="12.27" height="4.41"/>
				</g>
				<g>
					<rect x="620.35" y="306.19" class="st51" width="8.51" height="60.44"/>
					<rect x="579.91" y="306.19" class="st51" width="8.51" height="60.44"/>
					<rect x="580.17" y="324.47" class="st51" width="48.69" height="4.41"/>
				</g>
				<g>
					<path class="st52" d="M651.52,319.47l7.09-10.33l-26.84,2.62c-79.3-32.04-11.72,4.85-32.14-24.36h-16.3
						c0,0-2.98,27.43,8.47,20.23C598.21,321.9,640.62,323.95,651.52,319.47z"/>
					<path class="st56" d="M591.8,307.63v-9.62l6.41,4.17c-7.5-3.67-13.42-13.29-14.72-14.78h-17.31
						c-20.53,13.79-36.47,19.97-50.88,22.47l-22.53-6.06l7.09,11.75C515,320.91,575.73,323.96,591.8,307.63z"/>
					<path class="st57" d="M663.03,309.83v-8.1l-29.01,2.84c-22.76-9.2-34.74-26.33-34.74-26.33h-17.62c0,0-2.07,27.18,10.31,19.4
						C596.66,316.13,651.4,317.03,663.03,309.83z"/>
					<path class="st58" d="M591.96,297.63v-8.1l5.78,4.68c-8.11-3.97-14.51-14.37-15.91-15.97h-18.71
						c-22.2,14.9-39.42,21.59-55,24.29l-24.35-6.55v8.1C500.56,315.53,577.19,319.15,591.96,297.63z"/>
					<path class="st58" d="M663.03,301.73c-26.54,4.65-67.3-31.6-67.3-31.6h-14.07c0,0-2.07,27.18,10.31,19.4
						C596.66,308.03,651.4,308.92,663.03,301.73z"/>
					<path class="st54" d="M591.96,289.53c-11.77,2.49-10.13-19.4-10.13-19.4h-18.71c-34.21,22.97-56.62,26.43-79.35,25.85
						C500.56,307.43,577.19,311.05,591.96,289.53z"/>
				</g>
				<g>
					
						<rect x="510.87" y="352.67" transform="matrix(-1 -1.224647e-16 1.224647e-16 -1 1090.7722 707.4437)" class="st56" width="69.04" height="2.1"/>
					
						<rect x="510.87" y="358.87" transform="matrix(-1 -1.224647e-16 1.224647e-16 -1 1090.7722 719.8336)" class="st56" width="69.04" height="2.1"/>
					
						<rect x="510.87" y="364.53" transform="matrix(-1 -1.224647e-16 1.224647e-16 -1 1090.7722 731.166)" class="st56" width="69.04" height="2.1"/>
					
						<rect x="555.23" y="353.72" transform="matrix(-1 -1.224647e-16 1.224647e-16 -1 1112.9561 720.3534)" class="st56" width="2.49" height="12.91"/>
					
						<rect x="577.42" y="353.72" transform="matrix(-1 -1.224647e-16 1.224647e-16 -1 1157.3239 720.3534)" class="st56" width="2.49" height="12.91"/>
					
						<rect x="533.05" y="353.72" transform="matrix(-1 -1.224647e-16 1.224647e-16 -1 1068.5885 720.3534)" class="st56" width="2.49" height="12.91"/>
					
						<rect x="510.87" y="353.72" transform="matrix(-1 -1.224647e-16 1.224647e-16 -1 1024.2207 720.3534)" class="st56" width="2.49" height="12.91"/>
				</g>
				<g>
					
						<rect x="579.91" y="352.67" transform="matrix(-1 -1.224647e-16 1.224647e-16 -1 1216.0919 707.4437)" class="st52" width="56.28" height="2.1"/>
					
						<rect x="579.91" y="358.87" transform="matrix(-1 -1.224647e-16 1.224647e-16 -1 1216.0919 719.8336)" class="st52" width="56.28" height="2.1"/>
					
						<rect x="579.91" y="364.53" transform="matrix(-1 -1.224647e-16 1.224647e-16 -1 1216.0919 731.166)" class="st52" width="56.28" height="2.1"/>
					
						<rect x="615.77" y="353.72" transform="matrix(-1 -1.224647e-16 1.224647e-16 -1 1234.021 720.3534)" class="st52" width="2.49" height="12.91"/>
					
						<rect x="633.69" y="353.72" transform="matrix(-1 -1.224647e-16 1.224647e-16 -1 1269.879 720.3534)" class="st52" width="2.49" height="12.91"/>
					
						<rect x="597.84" y="353.72" transform="matrix(-1 -1.224647e-16 1.224647e-16 -1 1198.1628 720.3534)" class="st52" width="2.49" height="12.91"/>
					
						<rect x="579.91" y="353.72" transform="matrix(-1 -1.224647e-16 1.224647e-16 -1 1162.3048 720.3534)" class="st52" width="2.49" height="12.91"/>
				</g>
			</g>
			<g>
				<path class="st51" d="M640.26,251.23l6.03-8.78l-22.81,2.23c-67.4-27.23-9.96,4.12-27.32-20.7H582.3c0,0-2.53,23.31,7.2,17.19
					C594.96,253.3,631,255.04,640.26,251.23z"/>
				<path class="st52" d="M589.51,241.17v-8.18l5.45,3.54c-6.37-3.12-11.41-11.3-12.51-12.56h-14.71
					c-17.45,11.72-31,16.98-43.24,19.1l-19.15-5.15l6.03,9.99C524.23,252.46,575.84,255.05,589.51,241.17z"/>
				<g>
					<rect x="579.91" y="231.45" class="st53" width="48.95" height="60.44"/>
					<rect x="519.22" y="231.45" class="st2" width="60.69" height="60.44"/>
				</g>
				<g>
					<rect x="544.41" y="264.04" class="st54" width="9.65" height="26.09"/>
					<rect x="541.44" y="264.04" class="st55" width="2.96" height="26.09"/>
					<rect x="554.06" y="264.04" class="st55" width="2.96" height="26.09"/>
				</g>
				
					<rect x="561" y="263.46" transform="matrix(-1.836970e-16 1 -1 -1.836970e-16 831.9111 -296.9562)" class="st55" width="6.87" height="8.03"/>
				
					<rect x="530.76" y="263.46" transform="matrix(-1.836970e-16 1 -1 -1.836970e-16 801.6682 -266.7133)" class="st55" width="6.87" height="8.03"/>
				<g>
					<rect x="519.22" y="231.45" class="st52" width="8.51" height="60.44"/>
					<rect x="571.4" y="231.45" class="st52" width="8.51" height="60.44"/>
					<rect x="519.22" y="249.73" class="st52" width="60.95" height="4.41"/>
					
						<rect x="543.56" y="243.85" transform="matrix(-1.836970e-16 1 -1 -1.836970e-16 795.7544 -303.6372)" class="st52" width="12.27" height="4.41"/>
				</g>
				<g>
					<rect x="620.35" y="231.45" class="st51" width="8.51" height="60.44"/>
					<rect x="579.91" y="231.45" class="st51" width="8.51" height="60.44"/>
					<rect x="580.17" y="249.73" class="st51" width="48.69" height="4.41"/>
				</g>
				<g>
					<path class="st52" d="M651.52,244.73l7.09-10.33l-26.84,2.62c-79.3-32.04-11.72,4.85-32.14-24.36h-16.3
						c0,0-2.98,27.43,8.47,20.23C598.21,247.16,640.62,249.21,651.52,244.73z"/>
					<path class="st56" d="M591.8,232.89v-9.62l6.41,4.17c-7.5-3.67-13.42-13.29-14.72-14.78h-17.31
						c-20.53,13.79-36.47,19.97-50.88,22.47l-22.53-6.06l7.09,11.75C515,246.17,575.73,249.22,591.8,232.89z"/>
					<path class="st57" d="M663.03,235.09v-8.1l-29.01,2.84c-22.76-9.2-34.74-26.33-34.74-26.33h-17.62c0,0-2.07,27.18,10.31,19.4
						C596.66,241.39,651.4,242.29,663.03,235.09z"/>
					<path class="st58" d="M591.96,222.89v-8.1l5.78,4.68c-8.11-3.97-14.51-14.37-15.91-15.97h-18.71
						c-22.2,14.9-39.42,21.59-55,24.29l-24.35-6.55v8.1C500.56,240.79,577.19,244.41,591.96,222.89z"/>
					<path class="st58" d="M663.03,226.99c-26.54,4.65-67.3-31.6-67.3-31.6h-14.07c0,0-2.07,27.18,10.31,19.4
						C596.66,233.29,651.4,234.18,663.03,226.99z"/>
					<path class="st54" d="M591.96,214.79c-11.77,2.49-10.13-19.4-10.13-19.4h-18.71c-34.21,22.97-56.62,26.43-79.35,25.85
						C500.56,232.69,577.19,236.31,591.96,214.79z"/>
				</g>
				<g>
					
						<rect x="510.87" y="277.93" transform="matrix(-1 -1.224647e-16 1.224647e-16 -1 1090.7722 557.9625)" class="st56" width="69.04" height="2.1"/>
					
						<rect x="510.87" y="284.13" transform="matrix(-1 -1.224647e-16 1.224647e-16 -1 1090.7722 570.3523)" class="st56" width="69.04" height="2.1"/>
					
						<rect x="510.87" y="289.79" transform="matrix(-1 -1.224647e-16 1.224647e-16 -1 1090.7722 581.6847)" class="st56" width="69.04" height="2.1"/>
					
						<rect x="555.23" y="278.98" transform="matrix(-1 -1.224647e-16 1.224647e-16 -1 1112.9561 570.8721)" class="st56" width="2.49" height="12.91"/>
					
						<rect x="577.42" y="278.98" transform="matrix(-1 -1.224647e-16 1.224647e-16 -1 1157.3239 570.8721)" class="st56" width="2.49" height="12.91"/>
					
						<rect x="533.05" y="278.98" transform="matrix(-1 -1.224647e-16 1.224647e-16 -1 1068.5885 570.8721)" class="st56" width="2.49" height="12.91"/>
					
						<rect x="510.87" y="278.98" transform="matrix(-1 -1.224647e-16 1.224647e-16 -1 1024.2207 570.8721)" class="st56" width="2.49" height="12.91"/>
				</g>
				<g>
					
						<rect x="579.91" y="277.93" transform="matrix(-1 -1.224647e-16 1.224647e-16 -1 1216.0919 557.9625)" class="st52" width="56.28" height="2.1"/>
					
						<rect x="579.91" y="284.13" transform="matrix(-1 -1.224647e-16 1.224647e-16 -1 1216.0919 570.3523)" class="st52" width="56.28" height="2.1"/>
					
						<rect x="579.91" y="289.79" transform="matrix(-1 -1.224647e-16 1.224647e-16 -1 1216.0919 581.6847)" class="st52" width="56.28" height="2.1"/>
					
						<rect x="615.77" y="278.98" transform="matrix(-1 -1.224647e-16 1.224647e-16 -1 1234.021 570.8721)" class="st52" width="2.49" height="12.91"/>
					
						<rect x="633.69" y="278.98" transform="matrix(-1 -1.224647e-16 1.224647e-16 -1 1269.879 570.8721)" class="st52" width="2.49" height="12.91"/>
					
						<rect x="597.84" y="278.98" transform="matrix(-1 -1.224647e-16 1.224647e-16 -1 1198.1628 570.8721)" class="st52" width="2.49" height="12.91"/>
					
						<rect x="579.91" y="278.98" transform="matrix(-1 -1.224647e-16 1.224647e-16 -1 1162.3048 570.8721)" class="st52" width="2.49" height="12.91"/>
				</g>
			</g>
			<g>
				<path class="st51" d="M640.26,176.49l6.03-8.78l-22.81,2.23c-67.4-27.23-9.96,4.12-27.32-20.7H582.3c0,0-2.53,23.31,7.2,17.19
					C594.96,178.56,631,180.3,640.26,176.49z"/>
				<path class="st52" d="M589.51,166.43v-8.18l5.45,3.54c-6.37-3.12-11.41-11.3-12.51-12.56h-14.71
					c-17.45,11.72-31,16.98-43.24,19.1l-19.15-5.15l6.03,9.99C524.23,177.72,575.84,180.31,589.51,166.43z"/>
				<g>
					<rect x="579.91" y="156.71" class="st53" width="48.95" height="60.44"/>
					<rect x="519.22" y="156.71" class="st2" width="60.69" height="60.44"/>
				</g>
				<g>
					<rect x="544.41" y="189.3" class="st54" width="9.65" height="26.09"/>
					<rect x="541.44" y="189.3" class="st55" width="2.96" height="26.09"/>
					<rect x="554.06" y="189.3" class="st55" width="2.96" height="26.09"/>
				</g>
				
					<rect x="561" y="188.72" transform="matrix(-1.836970e-16 1 -1 -1.836970e-16 757.1705 -371.6969)" class="st55" width="6.87" height="8.03"/>
				
					<rect x="530.76" y="188.72" transform="matrix(-1.836970e-16 1 -1 -1.836970e-16 726.9276 -341.454)" class="st55" width="6.87" height="8.03"/>
				<g>
					<rect x="519.22" y="156.71" class="st52" width="8.51" height="60.44"/>
					<rect x="571.4" y="156.71" class="st52" width="8.51" height="60.44"/>
					<rect x="519.22" y="174.99" class="st52" width="60.95" height="4.41"/>
					
						<rect x="543.56" y="169.11" transform="matrix(-1.836970e-16 1 -1 -1.836970e-16 721.0137 -378.3778)" class="st52" width="12.27" height="4.41"/>
				</g>
				<g>
					<rect x="620.35" y="156.71" class="st51" width="8.51" height="60.44"/>
					<rect x="579.91" y="156.71" class="st51" width="8.51" height="60.44"/>
					<rect x="580.17" y="174.99" class="st51" width="48.69" height="4.41"/>
				</g>
				<g>
					<path class="st52" d="M651.52,169.99l7.09-10.33l-26.84,2.62c-79.3-32.04-11.72,4.85-32.14-24.36h-16.3
						c0,0-2.98,27.43,8.47,20.23C598.21,172.42,640.62,174.47,651.52,169.99z"/>
					<path class="st56" d="M591.8,158.15v-9.62l6.41,4.17c-7.5-3.67-13.42-13.29-14.72-14.78h-17.31
						c-20.53,13.79-36.47,19.97-50.88,22.47l-22.53-6.06l7.09,11.75C515,171.43,575.73,174.48,591.8,158.15z"/>
					<path class="st57" d="M663.03,160.35v-8.1l-29.01,2.84c-22.76-9.2-34.74-26.33-34.74-26.33h-17.62c0,0-2.07,27.18,10.31,19.4
						C596.66,166.65,651.4,167.55,663.03,160.35z"/>
					<path class="st58" d="M591.96,148.15v-8.1l5.78,4.68c-8.11-3.97-14.51-14.37-15.91-15.97h-18.71
						c-22.2,14.9-39.42,21.59-55,24.29l-24.35-6.55v8.1C500.56,166.05,577.19,169.67,591.96,148.15z"/>
					<path class="st58" d="M663.03,152.25c-26.54,4.65-67.3-31.6-67.3-31.6h-14.07c0,0-2.07,27.18,10.31,19.4
						C596.66,158.55,651.4,159.44,663.03,152.25z"/>
					<path class="st54" d="M591.96,140.05c-11.77,2.49-10.13-19.4-10.13-19.4h-18.71c-34.21,22.97-56.62,26.43-79.35,25.85
						C500.56,157.95,577.19,161.57,591.96,140.05z"/>
				</g>
				<g>
					
						<rect x="510.87" y="203.19" transform="matrix(-1 -1.224647e-16 1.224647e-16 -1 1090.7722 408.4812)" class="st56" width="69.04" height="2.1"/>
					
						<rect x="510.87" y="209.39" transform="matrix(-1 -1.224647e-16 1.224647e-16 -1 1090.7722 420.8711)" class="st56" width="69.04" height="2.1"/>
					
						<rect x="510.87" y="215.05" transform="matrix(-1 -1.224647e-16 1.224647e-16 -1 1090.7722 432.2034)" class="st56" width="69.04" height="2.1"/>
					
						<rect x="555.23" y="204.24" transform="matrix(-1 -1.224647e-16 1.224647e-16 -1 1112.9561 421.3908)" class="st56" width="2.49" height="12.91"/>
					
						<rect x="577.42" y="204.24" transform="matrix(-1 -1.224647e-16 1.224647e-16 -1 1157.3239 421.3908)" class="st56" width="2.49" height="12.91"/>
					
						<rect x="533.05" y="204.24" transform="matrix(-1 -1.224647e-16 1.224647e-16 -1 1068.5885 421.3908)" class="st56" width="2.49" height="12.91"/>
					
						<rect x="510.87" y="204.24" transform="matrix(-1 -1.224647e-16 1.224647e-16 -1 1024.2207 421.3908)" class="st56" width="2.49" height="12.91"/>
				</g>
				<g>
					
						<rect x="579.91" y="203.19" transform="matrix(-1 -1.224647e-16 1.224647e-16 -1 1216.0919 408.4812)" class="st52" width="56.28" height="2.1"/>
					
						<rect x="579.91" y="209.39" transform="matrix(-1 -1.224647e-16 1.224647e-16 -1 1216.0919 420.8711)" class="st52" width="56.28" height="2.1"/>
					
						<rect x="579.91" y="215.05" transform="matrix(-1 -1.224647e-16 1.224647e-16 -1 1216.0919 432.2034)" class="st52" width="56.28" height="2.1"/>
					
						<rect x="615.77" y="204.24" transform="matrix(-1 -1.224647e-16 1.224647e-16 -1 1234.021 421.3908)" class="st52" width="2.49" height="12.91"/>
					
						<rect x="633.69" y="204.24" transform="matrix(-1 -1.224647e-16 1.224647e-16 -1 1269.879 421.3908)" class="st52" width="2.49" height="12.91"/>
					
						<rect x="597.84" y="204.24" transform="matrix(-1 -1.224647e-16 1.224647e-16 -1 1198.1628 421.3908)" class="st52" width="2.49" height="12.91"/>
					
						<rect x="579.91" y="204.24" transform="matrix(-1 -1.224647e-16 1.224647e-16 -1 1162.3048 421.3908)" class="st52" width="2.49" height="12.91"/>
				</g>
			</g>
			<rect x="563.12" y="115.77" class="st54" width="32.6" height="4.88"/>
			<rect x="566.89" y="110.89" class="st54" width="25.07" height="4.88"/>
			<rect x="571.54" y="106" class="st54" width="15.78" height="4.88"/>
			<rect x="577.33" y="49.4" class="st54" width="4.2" height="56.6"/>
			<g>
				<rect x="501.46" y="441.5" class="st54" width="231.31" height="4.97"/>
				<rect x="495.35" y="446.48" class="st54" width="237.42" height="4.97"/>
				<rect x="489.23" y="451.45" class="st54" width="243.54" height="4.97"/>
				<rect x="483.12" y="456.42" class="st54" width="249.65" height="4.97"/>
				<rect x="477.01" y="461.39" class="st54" width="255.76" height="4.97"/>
				<rect x="470.9" y="466.36" class="st54" width="261.87" height="4.97"/>
				<rect x="464.78" y="471.33" class="st54" width="267.99" height="4.97"/>
				<rect x="458.67" y="476.31" class="st54" width="274.1" height="4.97"/>
				<rect x="452.56" y="481.28" class="st54" width="280.21" height="4.97"/>
				<rect x="446.45" y="486.25" class="st54" width="286.33" height="4.97"/>
				<rect x="440.33" y="491.22" class="st54" width="292.44" height="4.97"/>
				<rect x="434.22" y="496.19" class="st54" width="298.55" height="4.97"/>
				<g>
					<rect x="501.46" y="441.5" class="st59" width="231.31" height="0.81"/>
					<rect x="495.35" y="446.48" class="st59" width="237.42" height="0.81"/>
					<rect x="489.23" y="451.45" class="st59" width="243.54" height="0.81"/>
					<rect x="483.12" y="456.42" class="st59" width="249.65" height="0.81"/>
					<rect x="477.01" y="461.39" class="st59" width="255.76" height="0.81"/>
					<rect x="470.9" y="466.36" class="st59" width="261.87" height="0.81"/>
					<rect x="464.78" y="471.33" class="st59" width="267.99" height="0.81"/>
					<rect x="458.67" y="476.31" class="st59" width="274.1" height="0.81"/>
					<rect x="452.56" y="481.28" class="st59" width="280.21" height="0.81"/>
					<rect x="446.45" y="486.25" class="st59" width="286.33" height="0.81"/>
					<rect x="440.33" y="491.22" class="st59" width="292.44" height="0.81"/>
					<rect x="434.22" y="496.19" class="st59" width="298.55" height="0.81"/>
				</g>
			</g>
		</g>
		<g style="clip-path:url(#SVGID_00000091698835162423771290000012030823504988770476_);">
			
				<linearGradient id="SVGID_00000096048879515452116140000002435021778511144864_" gradientUnits="userSpaceOnUse" x1="645.4517" y1="638.5451" x2="645.4517" y2="376.4134" gradientTransform="matrix(-0.9775 0.2109 0.2109 0.9775 1147.3782 -128.9853)">
				<stop  offset="0.3583" style="stop-color:#1C7EB6"/>
				<stop  offset="1" style="stop-color:#44408D"/>
			</linearGradient>
			<path style="opacity:0.5;fill:url(#SVGID_00000096048879515452116140000002435021778511144864_);" d="M760,365.21
				c-3.82-13.85-14.08-23.04-23.17-20.53c-6.23,1.72-10.19,8.5-10.83,17.05c-0.18-0.15-0.35-0.32-0.54-0.47
				c-10.39-8.5-22.74-10.6-27.58-4.67c-4.85,5.92-0.35,17.61,10.03,26.12c0.19,0.15,0.38,0.29,0.57,0.44
				c-3.49,0.45-6.53,1.99-8.5,4.65c-4.45,6-1.99,15.48,5.43,21.92c-10.28-2.57-19.32-1.33-20.53,2.96
				c-0.94,3.34,3.15,7.59,9.79,10.79c-3.77,1.45-6.92,5.52-8.42,10.84c-1.08-1.51-2.42-2.8-4.05-3.75
				c-2.51-1.48-5.38-2.01-8.33-1.73c0.44-0.5,0.87-1.02,1.28-1.56c5.81-7.74,6.27-17.2,1.03-21.13c-5.22-3.91-14.12-0.86-19.93,6.81
				c-4.56-11.57-13.84-18.82-22.02-16.56c-6.05,1.67-9.94,8.11-10.75,16.31c-2.35-2.99-5.49-4.89-9.03-5.08
				c-7.96-0.44-14.9,7.88-15.49,18.59c-0.04,0.76-0.04,1.52-0.02,2.26c-6.96-3.65-14.41-3.33-17.76,1.18
				c-3.13,4.22-1.73,10.8,2.96,16.22c-1.86,0.07-3.67,0.48-5.36,1.31c-1.93,0.95-3.52,2.35-4.78,4.06c-0.19-2.52-0.73-5.16-1.67-7.8
				c-3.89-10.86-13-17.53-20.35-14.9c-6.58,2.36-9.5,11.37-7.25,21.03c-10.91-1.36-20.43,2.42-22.83,9.8
				c-1.91,5.89,1.22,12.58,7.45,17.75c-7.94-2.21-15.32-0.59-17.74,4.42c-2.59,5.36,1.39,12.78,9.03,17.66
				c-8.21,0.85-14.51,5.58-14.61,11.41c-0.08,4.58,3.69,8.61,9.28,10.68c-4.85,3.14-7.5,7.5-6.05,10.46c0.78,1.59,2.61,2.5,4.98,2.7
				c-1.58,3.26-2.24,7.37-1.9,11.85c-2.83-2.53-6.25-3.86-9.77-3.44c-7.92,0.94-13.3,10.34-12.03,20.99
				c0.09,0.76,0.22,1.5,0.37,2.23c-7.49-2.39-14.77-0.78-17.29,4.24c-2.93,5.85,1.7,14.11,10.35,18.45l3.15,19.06H760V365.21z"/>
			<g>
				
					<linearGradient id="SVGID_00000016774304298686356820000015474163306048664469_" gradientUnits="userSpaceOnUse" x1="652.7709" y1="499.8727" x2="709.6561" y2="443.6794" gradientTransform="matrix(0.7028 -0.7114 0.7114 0.7028 -87.927 571.653)">
					<stop  offset="0.3352" style="stop-color:#FFFFFF"/>
					<stop  offset="1" style="stop-color:#74B8ED"/>
				</linearGradient>
				<path style="opacity:0.5;fill:url(#SVGID_00000016774304298686356820000015474163306048664469_);" d="M764.1,399.4
					c-1.02-0.83-2.03-1.66-3.05-2.49c-7.14,8.15-14.99,15.54-23.4,22.14c5.92-8.75,11.07-18,15.36-27.65
					c-1.18-0.57-2.36-1.15-3.54-1.72c-4.01,7.59-8.55,14.82-13.58,21.67c2.42-7.96,4.29-16.08,5.58-24.31
					c-1.29-0.25-2.58-0.49-3.87-0.74c-1.4,6.16-3.14,12.21-5.18,18.14c-1.8-8.77-4.24-17.39-7.33-25.8
					c-1.25,0.41-2.49,0.82-3.74,1.23c3.49,11.94,5.66,24.14,6.53,36.37c-0.05,0.11-0.1,0.22-0.15,0.33
					c-3.11-11.22-7.28-22.12-12.49-32.53c-1.19,0.55-2.38,1.1-3.58,1.65c3.59,8.55,6.44,17.32,8.61,26.23
					c-4.61-7.6-9.79-14.84-15.48-21.68c-1.04,0.81-2.07,1.61-3.11,2.42c8.09,11.16,14.76,23.15,19.94,35.69
					c-0.15,0.15-0.29,0.3-0.44,0.45c-6.25-9.02-11.69-18.66-16.18-28.83c-1.22,0.49-2.44,0.98-3.65,1.47
					c2.96,8.17,6.52,16.1,10.64,23.75c-7.28-5.3-14.94-10.06-22.93-14.22c-0.64,1.14-1.29,2.29-1.93,3.43
					c9.25,5.63,17.89,12.09,25.84,19.24c-9.64-4.33-19.64-7.8-29.89-10.37c-0.36,1.26-0.72,2.52-1.08,3.79
					c8.16,2.64,16.08,5.87,23.68,9.64c-8.26-1.01-16.58-1.46-24.91-1.31c-0.02,1.31-0.04,2.62-0.06,3.94
					c10.92,0.55,21.41,2.37,32.05,4.74c5.77,0.65,12.89,2.85,16.57,7.51c1.55,1.97,3.16,3.9,4.8,5.8c0.35,0.41,0.7,0.81,1.06,1.22
					c0.02-0.23,0.05-0.46,0.07-0.69c0.08-0.81,0.15-1.62,0.21-2.43c0.36-4.35,0.47-8.72,0.6-13.08c0.04-1.42-0.88-11.58-0.26-11.9
					c11.5-5.79,23.69-10.33,36.37-13.47c-0.27-1.28-0.54-2.57-0.81-3.85c-8.56,1.51-16.99,3.65-25.23,6.39
					C752.63,413.29,758.63,406.56,764.1,399.4z"/>
				
					<linearGradient id="SVGID_00000072983452108603185130000017085516349665332385_" gradientUnits="userSpaceOnUse" x1="565.2302" y1="452.9089" x2="607.0364" y2="411.6112" gradientTransform="matrix(0.9968 -0.0805 0.0805 0.9968 19.2391 73.7341)">
					<stop  offset="0" style="stop-color:#84BCEA"/>
					<stop  offset="1" style="stop-color:#1C92DA"/>
				</linearGradient>
				<path style="opacity:0.5;fill:url(#SVGID_00000072983452108603185130000017085516349665332385_);" d="M668.47,464.79
					c-0.17-0.95-0.33-1.9-0.5-2.85c-7.88,1.11-15.8,1.46-23.65,1.11c7.49-2.03,14.79-4.72,21.82-8.03
					c-0.38-0.89-0.77-1.77-1.15-2.66c-5.87,2.3-11.87,4.15-17.95,5.55c5.16-3.28,10.1-6.9,14.77-10.86c-0.6-0.76-1.2-1.51-1.8-2.27
					c-3.73,2.76-7.61,5.3-11.58,7.62c3.2-5.74,5.98-11.72,8.29-17.88c-0.89-0.37-1.78-0.74-2.67-1.11
					c-3.78,8.32-8.43,16.15-13.81,23.39c-0.08,0.04-0.16,0.08-0.24,0.11c3.65-7.74,6.56-15.81,8.64-24.1
					c-0.93-0.27-1.85-0.53-2.78-0.8c-2.1,6.48-4.72,12.74-7.79,18.73c1.07-6.44,1.67-12.96,1.77-19.5c-0.96-0.05-1.93-0.1-2.89-0.14
					c-0.85,10.09-2.88,19.97-6.01,29.44c-0.15,0.02-0.31,0.03-0.46,0.04c0.84-8.02,2.44-15.99,4.82-23.81
					c-0.91-0.31-1.83-0.62-2.74-0.94c-2.27,5.97-4.09,12.1-5.47,18.33c-1.51-6.44-3.49-12.77-5.95-18.92
					c-0.91,0.33-1.81,0.66-2.72,0.98c2.45,7.58,4.16,15.31,5.16,23.11c-3.29-7.03-7.19-13.76-11.67-20.11
					c-0.81,0.53-1.61,1.06-2.42,1.59c3.28,5.39,6.14,10.98,8.56,16.73c-4.12-4.52-8.53-8.77-13.24-12.68
					c-0.64,0.72-1.28,1.44-1.92,2.16c5.82,5.54,10.78,11.59,15.58,18.01c2.9,3.13,5.81,7.77,5.63,12.13
					c-0.08,1.84-0.11,3.68-0.11,5.53c0,0.39,0,0.79,0.01,1.18c0.12-0.12,0.25-0.23,0.37-0.35c0.43-0.41,0.86-0.83,1.28-1.25
					c2.29-2.25,4.45-4.63,6.61-7c0.7-0.77,5.06-6.88,5.56-6.75c9.18,2.29,18.15,5.61,26.72,9.94c0.46-0.85,0.93-1.69,1.39-2.54
					c-5.49-3.26-11.21-6.11-17.11-8.54C655.42,467.02,661.99,466.15,668.47,464.79z"/>
				
					<linearGradient id="SVGID_00000128481267240990430770000006321153639122619071_" gradientUnits="userSpaceOnUse" x1="-51.0812" y1="436.8031" x2="-51.0812" y2="405.9493" gradientTransform="matrix(0.997 0.0773 -0.1752 2.2591 856.8836 -502.1214)">
					<stop  offset="0" style="stop-color:#84BCEA"/>
					<stop  offset="1" style="stop-color:#1C92DA"/>
				</linearGradient>
				<path style="opacity:0.5;fill:url(#SVGID_00000128481267240990430770000006321153639122619071_);" d="M760.86,454.73
					c-1.21,15.6-15.28,27.23-31.43,25.98c-16.15-1.25-28.26-14.92-27.05-30.52c1.21-15.6,15.28-40.52,31.43-39.27
					C749.96,412.18,762.07,439.13,760.86,454.73z"/>
				
					<linearGradient id="SVGID_00000109737210775603793070000003895005216121046965_" gradientUnits="userSpaceOnUse" x1="-165.0504" y1="454.5515" x2="-165.0504" y2="429.0934" gradientTransform="matrix(0.997 0.0773 -0.1752 2.2591 856.8836 -502.1214)">
					<stop  offset="0" style="stop-color:#FFFFFF"/>
					<stop  offset="1" style="stop-color:#74B8ED"/>
				</linearGradient>
				<path style="opacity:0.5;fill:url(#SVGID_00000109737210775603793070000003895005216121046965_);" d="M638.63,490.56
					c-1,12.87-12.61,22.47-25.94,21.44c-13.33-1.03-23.32-12.31-22.32-25.18c1-12.87,12.61-33.43,25.94-32.4
					C629.63,455.45,639.62,477.69,638.63,490.56z"/>
			</g>
		</g>
		<g style="clip-path:url(#SVGID_00000091698835162423771290000012030823504988770476_);">
			
				<linearGradient id="SVGID_00000042706452911839772470000011292757190121760180_" gradientUnits="userSpaceOnUse" x1="-736.5239" y1="443.8662" x2="-736.5239" y2="407.7274" gradientTransform="matrix(0.9003 0.4352 -0.6693 1.3848 997.7913 159.9393)">
				<stop  offset="0" style="stop-color:#44408D"/>
				<stop  offset="1" style="stop-color:#1C7EB6"/>
			</linearGradient>
			<path style="opacity:0.5;fill:url(#SVGID_00000042706452911839772470000011292757190121760180_);" d="M87.87,447.49
				c-6.68,13.82-29.18,16.76-50.25,6.58c-21.07-10.19-32.74-29.65-26.06-43.47c6.68-13.82,29.18-16.76,50.25-6.58
				C82.88,414.21,94.55,433.67,87.87,447.49z"/>
			<g>
				
					<rect x="138.24" y="322.83" transform="matrix(-1 -1.224647e-16 1.224647e-16 -1 277.8451 654.9978)" class="st54" width="1.36" height="9.34"/>
				<g>
					
						<linearGradient id="SVGID_00000010276929896755618240000010278357503617341083_" gradientUnits="userSpaceOnUse" x1="-2060.5942" y1="-3349.0291" x2="-2060.8684" y2="-3340.2114" gradientTransform="matrix(-0.7577 0.6526 0.2723 0.3162 -540.6225 2736.8706)">
						<stop  offset="0" style="stop-color:#FB9898"/>
						<stop  offset="1" style="stop-color:#E38776"/>
					</linearGradient>
					<polygon style="opacity:0.5;fill:url(#SVGID_00000010276929896755618240000010278357503617341083_);" points="95.65,348.96 
						126.52,322.37 124.46,319.98 93.59,346.57 					"/>
					
						<linearGradient id="SVGID_00000097465211720801028030000013723552336443725194_" gradientUnits="userSpaceOnUse" x1="277.9363" y1="347.6678" x2="206.2173" y2="419.387" gradientTransform="matrix(-1 0 0 1 336.6449 0)">
						<stop  offset="0" style="stop-color:#FB9898"/>
						<stop  offset="1" style="stop-color:#E38776"/>
					</linearGradient>
					<polygon style="opacity:0.5;fill:url(#SVGID_00000097465211720801028030000013723552336443725194_);" points="91.1,451.78 
						98.03,451.78 98.03,315.27 91.1,315.27 					"/>
					
						<linearGradient id="SVGID_00000102534787916753983470000007106506481052096129_" gradientUnits="userSpaceOnUse" x1="234.285" y1="304.0164" x2="204.2137" y2="334.0876" gradientTransform="matrix(-1 0 0 1 336.6449 0)">
						<stop  offset="0" style="stop-color:#FB9898"/>
						<stop  offset="1" style="stop-color:#E38776"/>
					</linearGradient>
					<polygon style="opacity:0.5;fill:url(#SVGID_00000102534787916753983470000007106506481052096129_);" points="91.1,322.83 
						143.69,322.83 143.69,315.27 91.1,315.27 					"/>
				</g>
				<g>
					
						<linearGradient id="SVGID_00000078757997952003767640000008146378806371125664_" gradientUnits="userSpaceOnUse" x1="211.7931" y1="340.9406" x2="183.6516" y2="369.0821" gradientTransform="matrix(-1 0 0 1 336.6449 0)">
						<stop  offset="0" style="stop-color:#FF977C"/>
						<stop  offset="0.1004" style="stop-color:#FF8A75"/>
						<stop  offset="0.2862" style="stop-color:#FF6761"/>
						<stop  offset="0.4034" style="stop-color:#FF4E53"/>
						<stop  offset="0.5243" style="stop-color:#F24650"/>
						<stop  offset="0.7491" style="stop-color:#CF2F4A"/>
						<stop  offset="1" style="stop-color:#A11241"/>
					</linearGradient>
					<path style="opacity:0.5;fill:url(#SVGID_00000078757997952003767640000008146378806371125664_);" d="M134.97,375.64h7.91
						c4.74,0,8.58-3.84,8.58-8.58v-24.09c0-4.74-3.84-8.58-8.58-8.58h-7.91c-4.74,0-8.58,3.84-8.58,8.58v24.09
						C126.38,371.8,130.22,375.64,134.97,375.64z"/>
					
						<rect x="134.37" y="331.2" transform="matrix(-1 -1.224647e-16 1.224647e-16 -1 277.8452 665.5543)" class="st54" width="9.1" height="3.15"/>
					
						<rect x="134.37" y="375.64" transform="matrix(-1 -1.224647e-16 1.224647e-16 -1 277.8452 754.4259)" class="st54" width="9.1" height="3.15"/>
					<path class="st70" d="M144.71,375.61h-1.44c2.55-1.08,4.35-3.59,4.35-6.53v-28.14c0-2.8-1.64-5.23-4.01-6.38h1.33
						c2.02,1.4,3.34,3.74,3.34,6.38v28.14C148.28,371.82,146.85,374.23,144.71,375.61z"/>
					<path class="st70" d="M130.23,340.94v28.14c0,2.94,1.8,5.45,4.35,6.53h-1.44c-2.15-1.38-3.57-3.79-3.57-6.53v-28.14
						c0-2.64,1.33-4.97,3.34-6.38h1.33C131.87,335.72,130.23,338.14,130.23,340.94z"/>
					<path class="st70" d="M134.78,340.94v28.14c0,2.93,1.06,5.45,2.57,6.53h-0.98c-1.35-1.38-2.25-3.79-2.25-6.53v-28.14
						c0-2.65,0.84-4.97,2.12-6.38h0.92C135.75,335.72,134.78,338.14,134.78,340.94z"/>
					<polygon class="st70" points="138.51,375.61 138.66,334.56 139.33,334.56 139.18,375.61 					"/>
					<path class="st70" d="M143.73,369.08c0,2.74-0.9,5.15-2.25,6.53h-0.99c1.51-1.08,2.58-3.59,2.58-6.53v-28.14
						c0-2.8-0.97-5.22-2.37-6.38h0.92c1.28,1.4,2.12,3.73,2.12,6.38V369.08z"/>
				</g>
				<polygon class="st54" points="138.03,322.83 139.48,322.83 136.75,315.27 135.3,315.27 				"/>
				<polygon class="st54" points="139.82,322.83 138.37,322.83 141.1,315.27 142.54,315.27 				"/>
			</g>
			
				<ellipse transform="matrix(0.3181 -0.948 0.948 0.3181 -377.796 390.5546)" class="st71" cx="82.61" cy="457.92" rx="17.94" ry="27.36"/>
			<g>
				
					<linearGradient id="SVGID_00000178191826836401909610000006251523916022782910_" gradientUnits="userSpaceOnUse" x1="-691.108" y1="190.9215" x2="-691.108" y2="143.8188" gradientTransform="matrix(1 0 0 1 787.5558 0)">
					<stop  offset="0" style="stop-color:#1C7EB6"/>
					<stop  offset="1" style="stop-color:#64AADA"/>
				</linearGradient>
				
					<ellipse style="opacity:0.5;fill:url(#SVGID_00000178191826836401909610000006251523916022782910_);" cx="96.45" cy="167.37" rx="54.18" ry="23.55"/>
				
					<linearGradient id="SVGID_00000168084809601822815840000002480668990535336127_" gradientUnits="userSpaceOnUse" x1="-608.1195" y1="215.3681" x2="-608.1195" y2="185.453" gradientTransform="matrix(1 0 0 1 787.5558 0)">
					<stop  offset="0" style="stop-color:#44408D"/>
					<stop  offset="1" style="stop-color:#1C7EB6"/>
				</linearGradient>
				
					<ellipse style="opacity:0.5;fill:url(#SVGID_00000168084809601822815840000002480668990535336127_);" cx="179.44" cy="200.41" rx="34.41" ry="14.96"/>
				<path class="st74" d="M54.92,208.58c2.55-0.31,5.11-0.76,7.57-1.61c2.45-0.85,4.87-1.92,7.14-3.3c2.26-1.39,4.42-3.01,6.45-4.82
					c2-1.84,3.88-3.86,5.62-6.02c3.47-4.33,6.39-9.18,8.86-14.28c2.44-5.11,4.48-10.46,5.92-16c-0.79,5.68-2.22,11.28-4.09,16.76
					c-1.91,5.46-4.32,10.81-7.46,15.82c-1.58,2.5-3.35,4.9-5.31,7.18c-1.99,2.25-4.2,4.35-6.61,6.25c-2.42,1.9-5.1,3.49-7.92,4.85
					c-2.83,1.35-5.85,2.28-8.92,3L54.92,208.58z"/>
				
					<linearGradient id="SVGID_00000083088223777440493140000014523590213777973156_" gradientUnits="userSpaceOnUse" x1="-781.2349" y1="228.4209" x2="-781.2349" y2="162.8691" gradientTransform="matrix(1 0 0 1 787.5558 0)">
					<stop  offset="0" style="stop-color:#1C7EB6"/>
					<stop  offset="1" style="stop-color:#64AADA"/>
				</linearGradient>
				
					<ellipse style="opacity:0.5;fill:url(#SVGID_00000083088223777440493140000014523590213777973156_);" cx="6.32" cy="195.65" rx="64.19" ry="32.78"/>
				
					<linearGradient id="SVGID_00000124853663296296511430000007484832882730996118_" gradientUnits="userSpaceOnUse" x1="-743.0058" y1="268.2664" x2="-743.0058" y2="192.1347" gradientTransform="matrix(1 0 0 1 787.5558 0)">
					<stop  offset="0" style="stop-color:#44408D"/>
					<stop  offset="1" style="stop-color:#1C7EB6"/>
				</linearGradient>
				
					<ellipse style="opacity:0.5;fill:url(#SVGID_00000124853663296296511430000007484832882730996118_);" cx="44.55" cy="230.2" rx="74.55" ry="38.07"/>
				
					<linearGradient id="SVGID_00000102541426471788005760000012915889802963768459_" gradientUnits="userSpaceOnUse" x1="-768.3307" y1="274.3333" x2="-768.3307" y2="240.3368" gradientTransform="matrix(1 0 0 1 787.5558 0)">
					<stop  offset="0" style="stop-color:#2D89BF"/>
					<stop  offset="1" style="stop-color:#64BAEC"/>
				</linearGradient>
				
					<ellipse style="opacity:0.5;fill:url(#SVGID_00000102541426471788005760000012915889802963768459_);" cx="19.23" cy="257.34" rx="33.29" ry="17"/>
				
					<linearGradient id="SVGID_00000143616468619600308880000016406150415639287189_" gradientUnits="userSpaceOnUse" x1="-642.6663" y1="244.8488" x2="-642.6663" y2="200.4106" gradientTransform="matrix(1 0 0 1 787.5558 0)">
					<stop  offset="0" style="stop-color:#2D89BF"/>
					<stop  offset="1" style="stop-color:#64BAEC"/>
				</linearGradient>
				
					<ellipse style="opacity:0.5;fill:url(#SVGID_00000143616468619600308880000016406150415639287189_);" cx="144.89" cy="222.63" rx="52.12" ry="22.22"/>
				<path class="st54" d="M128.61,242.28c-1.69,5.47-3.82,10.81-6.74,15.65c-5.87,9.67-14.28,17.69-23.89,23.35
					c-9.58,5.78-20.66,8.39-31.72,12.44c-3.97,1.45-7.98,3.14-11.83,5.27c0.41-1.73,0.8-3.46,1.15-5.19
					c3.07-15.64,3.97-31.26,4.63-46.81c-1.52,7.64-3.06,15.27-4.91,22.8c-1.89,7.51-3.93,14.95-6.56,22.11
					c-2.63,7.12-5.74,13.98-9.43,20.39c-0.35,0.54-0.69,1.1-1.01,1.67c-0.7,1.13-1.41,2.24-2.15,3.34
					c-3.86-2.7-7.38-5.94-10.15-9.83c-2.97-4.09-5.17-8.82-6.51-13.86c-1.38-5.03-1.92-10.35-1.84-15.69
					c0.11-5.34,0.77-10.73,2.2-15.95c-2.03,5.03-3.34,10.37-4.09,15.81c-0.72,5.44-0.83,11.04,0.02,16.6
					c0.81,5.56,2.59,11.08,5.42,16.13c2.66,4.86,6.35,9.15,10.53,12.84c-1.79,2.27-3.67,4.46-5.62,6.56l-3.81,3.87l-4.08,3.6
					c-0.69,0.58-1.32,1.22-2.06,1.76l-2.17,1.65l-2.16,1.64c-0.72,0.55-1.42,1.11-2.2,1.59c-3.07,2.01-5.95,3.98-9.36,6.04
					c-3.31,2.05-6.67,4.14-10.05,6.31c-3.38,2.2-6.77,4.49-10.15,6.95c-3.37,2.5-6.72,5.15-9.99,8.09
					c-3.25,2.97-6.42,6.19-9.38,9.75c-2.93,3.61-5.63,7.54-7.99,11.78l25.74,12.04c1.01-2.76,2.29-5.52,3.86-8.25
					c1.62-2.71,3.52-5.39,5.64-8.04c2.15-2.63,4.54-5.22,7.07-7.77c2.56-2.54,5.27-5.06,8.07-7.56c2.83-2.5,5.74-5,8.7-7.53
					c2.93-2.44,6.09-5.35,9.15-8.12c0.78-0.67,1.5-1.44,2.23-2.19l2.17-2.25l2.16-2.25c0.73-0.73,1.37-1.58,2.05-2.37
					c1.34-1.6,2.69-3.19,4-4.8l3.66-5.07c4.68-6.88,8.64-14.19,11.66-21.78c0.75-1.93,1.45-3.87,2.1-5.82
					c1.1-1.12,2.3-2.18,3.58-3.17c4.19-3.28,9.04-5.85,14.2-8.1c5.15-2.28,10.55-4.28,15.94-6.57c2.69-1.15,5.38-2.37,8.02-3.73
					c2.64-1.38,5.2-2.9,7.66-4.56c9.82-6.67,18.02-15.6,23.46-26.02c2.7-5.23,4.51-10.81,5.86-16.43c1.36-5.63,2.3-11.31,3.34-16.98
					C131.62,231.18,130.31,236.8,128.61,242.28z"/>
			</g>
			
				<linearGradient id="SVGID_00000127010494754242808980000000444103902950988450_" gradientUnits="userSpaceOnUse" x1="-758.8914" y1="439.347" x2="-758.8914" y2="416.1502" gradientTransform="matrix(0.997 0.0773 -0.1752 2.2591 856.8836 -502.1214)">
				<stop  offset="0" style="stop-color:#FFFFFF"/>
				<stop  offset="1" style="stop-color:#74B8ED"/>
			</linearGradient>
			<path style="opacity:0.5;fill:url(#SVGID_00000127010494754242808980000000444103902950988450_);" d="M46.93,412.21
				c-0.91,11.73-11.49,20.47-23.63,19.53S2.05,420.53,2.96,408.8s11.49-30.46,23.63-29.52C38.73,380.22,47.84,400.48,46.93,412.21z"
				/>
			<path class="st80" d="M178.72,488.53c-1.26,16.27-15.94,28.41-32.79,27.1c-16.85-1.31-29.48-15.56-28.22-31.83
				c1.26-16.27,15.94-42.27,32.79-40.96C167.35,444.14,179.98,472.26,178.72,488.53z"/>
			<path class="st80" d="M21.98,427.72c-0.91,11.73-11.49,20.47-23.63,19.53c-12.14-0.94-21.25-11.21-20.34-22.94
				c0.91-11.73,11.49-30.46,23.63-29.52C13.79,395.73,22.89,415.99,21.98,427.72z"/>
			
				<linearGradient id="SVGID_00000090260279109894168160000014976026205595346611_" gradientUnits="userSpaceOnUse" x1="-648.1588" y1="464.4346" x2="-648.1588" y2="448.7586" gradientTransform="matrix(0.997 0.0773 -0.1752 2.2591 856.8836 -502.1214)">
				<stop  offset="0" style="stop-color:#FFFFFF"/>
				<stop  offset="1" style="stop-color:#74B8ED"/>
			</linearGradient>
			<path style="opacity:0.5;fill:url(#SVGID_00000090260279109894168160000014976026205595346611_);" d="M145.27,483.78
				c-0.61,7.93-7.76,13.84-15.97,13.2c-8.2-0.64-14.36-7.58-13.74-15.5c0.61-7.93,7.76-20.59,15.97-19.95
				C139.73,462.16,145.88,475.86,145.27,483.78z"/>
			
				<linearGradient id="SVGID_00000079456506327764177440000009954870089572912298_" gradientUnits="userSpaceOnUse" x1="59.7137" y1="454.5173" x2="59.7137" y2="409.4978">
				<stop  offset="0.3352" style="stop-color:#FFFFFF"/>
				<stop  offset="1" style="stop-color:#74B8ED"/>
			</linearGradient>
			<path style="opacity:0.5;fill:url(#SVGID_00000079456506327764177440000009954870089572912298_);" d="M87.63,441.03
				c-0.08-0.84-0.16-1.68-0.24-2.52c-6.94,0.41-13.85,0.16-20.66-0.7c6.66-1.24,13.21-3.07,19.55-5.46
				c-0.27-0.8-0.54-1.59-0.81-2.39c-5.27,1.59-10.62,2.78-16.01,3.57c4.72-2.49,9.28-5.29,13.61-8.41c-0.47-0.7-0.94-1.4-1.41-2.1
				c-3.44,2.14-6.99,4.07-10.61,5.82c3.19-4.77,6.03-9.78,8.47-14.98c-0.75-0.38-1.5-0.77-2.25-1.15
				c-3.88,6.98-8.47,13.46-13.66,19.38c-0.07,0.03-0.15,0.05-0.22,0.08c3.72-6.48,6.81-13.29,9.21-20.37
				c-0.79-0.3-1.58-0.59-2.36-0.89c-2.29,5.49-5,10.75-8.09,15.75c1.39-5.53,2.36-11.16,2.91-16.84c-0.83-0.11-1.67-0.22-2.51-0.33
				c-1.45,8.72-3.91,17.17-7.3,25.19c-0.14,0-0.27,0-0.41,0.01c1.3-6.92,3.25-13.75,5.87-20.38c-0.77-0.34-1.54-0.67-2.32-1.01
				c-2.39,5.04-4.41,10.24-6.05,15.56c-0.86-5.71-2.14-11.36-3.85-16.88c-0.81,0.22-1.62,0.44-2.44,0.67
				c1.6,6.76,2.55,13.62,2.87,20.47c-2.37-6.35-5.29-12.48-8.74-18.32c-0.74,0.4-1.48,0.81-2.22,1.21
				c2.47,4.92,4.57,9.99,6.28,15.16c-3.26-4.23-6.81-8.23-10.63-11.96c-0.61,0.58-1.22,1.16-1.82,1.75
				c4.68,5.23,8.57,10.84,12.29,16.77c2.3,2.93,4.51,7.17,4.04,10.95c-0.2,1.6-0.35,3.2-0.48,4.81c-0.03,0.34-0.05,0.69-0.08,1.03
				c0.12-0.09,0.23-0.19,0.35-0.28c0.4-0.33,0.81-0.66,1.21-1c2.15-1.8,4.19-3.72,6.24-5.63c0.67-0.62,4.89-5.63,5.32-5.48
				c7.83,2.64,15.4,6.15,22.55,10.53c0.46-0.7,0.93-1.41,1.39-2.11c-4.55-3.22-9.33-6.11-14.29-8.64
				C76.11,442.05,81.89,441.76,87.63,441.03z"/>
		</g>
		<g style="clip-path:url(#SVGID_00000091698835162423771290000012030823504988770476_);">
			<path class="st54" d="M645.63,500c10.31-20.94,24.66-38.93,43.14-52.95c74.59-56.57,193.37-31.37,293.6,52.95H645.63z"/>
			<path class="st71" d="M540.23,500c14.18-10.71,29.73-19.3,46.7-25.28c55.71-19.63,117.11-8.78,174.95,25.28H540.23z"/>
			<path class="st54" d="M-151.56,500c56.78-64.96,130.03-96.44,194.43-74.82c35.75,12,63.78,38.73,82.73,74.82H-151.56z"/>
			<path class="st71" d="M21.99,500c49.26-34.3,102.03-44.62,142.22-22.01c10.09,5.67,18.79,13.13,26.15,22.01H21.99z"/>
			<path class="st71" d="M349.17,500c-36.34-16.07-74.27-17-103.64,0H349.17z"/>
		</g>
	</g>
</g>
</svg>
